<?xml version="1.0" encoding="utf-8"?>
<!-- Generator: Adobe Illustrator 15.0.0, SVG Export Plug-In . SVG Version: 6.00 Build 0)  -->
<!DOCTYPE svg PUBLIC "-//W3C//DTD SVG 1.1//EN" "http://www.w3.org/Graphics/SVG/1.1/DTD/svg11.dtd">
<svg version="1.1" id="Layer_1" xmlns="http://www.w3.org/2000/svg" xmlns:xlink="http://www.w3.org/1999/xlink" x="0px" y="0px"
	 width="400px" height="340.167px" viewBox="0 0 400 340.167" enable-background="new 0 0 400 340.167" xml:space="preserve">
<path fill-rule="evenodd" clip-rule="evenodd" fill="#F4E4DC" d="M238.403,105.683c0.971-0.002,0.525-1.422,1.558-1.362
	c39.601-2.825,88.334-1.544,112.142,18.3c1.588,11.303,10.601,23.568,7.205,36.02c-2.704,1.225-3.66-2.053-5.062-2.726
	c-7.573-3.634-32.036-11.535-32.902,0.584c-0.167,2.327,1.611,4.649,3.893,4.866c11.914,1.136,23.262-1.643,32.904,2.922
	c-0.879,7.424-3.495,12.252-3.7,20.053c-9.864-0.232-24.754-2.803-30.761,3.311c11.051-1.821,24.686-0.834,31.734,5.061
	c1.443,5.697,3.417,10.861,4.479,16.939c2.944,7.11,7.797,14.295,7.203,24.337c-1.038,17.596-16.423,28.301-24.92,41.079
	c-9.18,13.803-13.021,28.605-19.859,44c-18.1,22.348-60.422,12.807-90.143,8.178c-40.143-6.251-91.719-20.61-106.301-51.01
	c-3.182-6.629-3.615-22.861-11.099-24.336c-5.045-0.995-3.069,3.08-3.894,6.425c-1.535,6.218-18.765,0.275-22.001-1.558
	c-7.845-4.445-15.095-11.165-21.222-18.302c-5.188-6.044-10.143-7.384-6.619-15.38c2.255-5.117,4.09-8.855,8.177-13.434
	c1.843-2.064,8.274-10.716,10.709-10.904c3.729-0.287,9.121,7.304,9.345,11.293c0.466,8.283-1.43,17.063,2.921,21.416
	c-2.499,0.471-3.296-2.563-5.062-1.559c-0.229,2.654,11.801,7.787,12.071,2.922c0.265-4.759-7.518-7.02-8.178-13.629
	c-0.333-3.336,1.258-3.938,1.753-7.398c1.458-10.205-4.03-13.35-9.734-16.354c2.692-3.342,6.38-5.691,10.513-7.594
	c3.986,3.479,6.45,9.514,11.098,11.682c-0.232-2.508-3.432-4.729-3.115-7.787c20,6.102,34.562,24.476,58.213,24.336
	c-11.566-20.359-15.674-54.318-9.345-81.77c2.114,0.351,3.257,1.676,5.451,1.945c12.366-6.317,29.11-14.254,45.169-17.521
	c5.818-1.186,22.488-3.421,23.168-8.566c0.908-6.876-6.129-13.847-2.336-21.807c0.13,0,0.26,0,0.39,0
	C227.146,94.616,227.372,105.552,238.403,105.683z"/>
<path fill-rule="evenodd" clip-rule="evenodd" fill="#6FB4E3" d="M27.746,114.444c-0.184,2.668-2.749,5.561-3.31,7.982
	c-1.223,5.285-7.748,20.449-0.779,22.195c3.838,0.961,7.518-4.381,9.93-6.036c9.084-6.237,17.156-13.341,21.416-24.142
	c-3.939,15.293-15.785,22.195-25.699,31.15c-14.356,12.969-30.893,33.515-28.814,61.523c3.436,46.274,33.254,73.118,67.363,89.947
	c-17.002-10.406-35.84-27.164-31.346-55.877c2.438-15.569,10.6-24.609,17.717-34.849c7.932-11.409,20.951-18.525,27.452-29.593
	c0.937-1.596,2.044-3.244,2.531-4.674c0.706-2.076,1.435-15.764,2.726-15.77c2.01-0.012,0.805,4.473,1.168,6.425
	c3.068,16.429,23.536,31.748,37.576,38.743c8.771,4.371,17.051,9.087,27.062,11.292c-17.045-21.544-27.062-69.812-7.983-96.567
	c2.371,3.7,3.514,15.689,8.568,15.965c1.892,0.104,6.108-3.912,7.787-4.672c16.25-7.354,38.667-12.137,57.435-16.55
	c-10.723-8.655-7.466-34.014,0-44.194c3.737,9.844,7.915,19.303,12.653,28.424c5.988,11.522,29.421,1.22,42.444,0.584
	c16.184-0.789,34.018-3.497,50.425-0.973c24.96,3.84,43.395,13.831,61.328,23.947c-2.641-5.21-5.876-9.829-8.177-15.381
	c-27.53-35.525-47.703-83.509-96.762-96.566c-39.235-10.445-75.679,8.029-105.134,17.132c-0.149-2.902,3.884-3.233,5.646-4.867
	c-12.175-6.12-34.765-9.771-51.788-4.867C97.518,23.296,76.187,39.448,58.507,59.93c0,0-15.682,19.688-27.363,45.386L27.746,114.444
	z"/>
<path fill-rule="evenodd" clip-rule="evenodd" d="M88.62,30.904c17.997-13.401,40.326-22.591,70.348-20.426
	c11.62,0.837,23.691,0.929,35.435,0.778c18.813-0.239,32.95-7.687,51.594-10.513c12.487-1.894,24.927,0.124,34.267,2.726
	c49.625,13.828,76.717,61.425,100.072,100.851c4.356,7.357,8.495,16.056,13.432,23.169c1.408,2.026,3.887,4.024,4.675,6.229
	c4.541,12.728-11.194,18.69-10.71,28.62c0.134,2.71,1.715,7.46,2.531,11.292c3.775,17.698,1.991,42.134-1.947,59.577
	c-0.776,3.443-1.915,10.283-5.062,10.122c-4.071-0.207-7.736-8.7-14.018-7.787c0.223,16.459-20.504,21.97-16.743,37.575
	c2.816,11.689,11.424,23.186,19.664,30.373c-4.609,14.239-31.621,18.259-45.558,9.93c-11.28,35.014-73.271,20.474-105.913,14.407
	c-17.094-3.179-33.785-9.642-48.867-14.213c-8.85-2.683-15.426-4.628-20.443,3.698c-2.685-3.548-3.293-11.394-9.54-9.54
	c-2.991,6.74-5.222,15.217-5.646,24.921c-0.431,9.834-5.112,4.41-8.566,1.363c-3.284-2.896-7.696-5.893-10.708-8.373
	c-24.621-20.27-63.66-25.619-84.691-50.619c-3.616-4.299-8.211-7.193-11.486-11.291c-6.799-8.511-14.141-20.137-16.744-30.178
	c-6.151-23.729-5.736-47.394,5.062-65.807c1.656-2.824,4.961-6.05,5.841-9.93c2.814-12.411,2.726-22.502,7.177-35.393
	s7.896-18.062,7.896-18.062c10.248-23.124,28.807-51.03,40.75-60.117 M24.437,122.427c-1.223,5.285-7.748,20.449-0.779,22.195
	c3.838,0.961,7.518-4.381,9.93-6.036c9.084-6.237,17.156-13.341,21.416-24.142c-3.939,15.293-15.785,22.195-25.699,31.15
	c-14.356,12.969-28.752,33.515-26.673,61.523c3.435,46.274,31.112,73.118,65.222,89.947c-17.002-10.406-36.425-27.164-31.93-55.877
	c2.281-21.025,9.82-25.778,16.938-36.018c13.38-14.406,18.832-17.133,28.815-28.424c0.937-1.596,2.044-3.244,2.531-4.674
	c0.706-2.076,1.435-15.764,2.726-15.77c2.01-0.012,0.805,4.473,1.168,6.425c3.068,16.429,23.536,31.748,37.576,38.743
	c8.771,4.371,17.051,9.087,27.062,11.292c-17.045-21.544-27.062-69.812-7.983-96.567c2.371,3.7,3.514,15.689,8.568,15.965
	c1.892,0.104,6.108-3.912,7.787-4.672c16.25-7.354,38.667-12.137,57.435-16.55c-10.723-8.655-7.466-34.014,0-44.194
	c3.737,9.844,7.915,19.303,12.653,28.424c5.988,11.522,29.421,1.22,42.444,0.584c16.184-0.789,34.018-3.497,50.425-0.973
	c24.96,3.84,43.395,13.831,61.328,23.947c-2.641-5.21-5.876-9.829-8.177-15.381c-27.53-35.525-47.703-83.509-96.762-96.566
	c-39.235-10.445-75.679,8.029-105.134,17.132c-0.149-2.902,3.884-3.233,5.646-4.867c-12.175-6.12-34.765-9.771-51.788-4.867
	c-15.372,4.427-28.309,10.512-39.574,17.945C51.123,56.428,24.437,122.427,24.437,122.427z M222.244,88.354c-0.13,0-0.26,0-0.39,0
	c-3.793,7.96,3.244,14.931,2.336,21.807c-0.68,5.146-17.35,7.381-23.168,8.566c-16.059,3.268-32.803,11.204-45.169,17.521
	c-2.194-0.27-3.337-1.595-5.451-1.945c-6.329,27.451-2.222,61.41,9.345,81.77c-23.65,0.14-38.213-18.234-58.213-24.336
	c-0.316,3.059,2.883,5.279,3.115,7.787c-4.647-2.168-7.111-8.202-11.098-11.682c-4.133,1.902-7.82,4.252-10.513,7.594
	c5.704,3.004,11.192,6.148,9.734,16.354c-0.495,3.461-2.086,4.062-1.753,7.398c0.66,6.609,8.442,8.87,8.178,13.629
	c-0.271,4.865-12.3-0.268-12.071-2.922c1.767-1.005,2.563,2.029,5.062,1.559c-4.351-4.353-2.455-13.133-2.921-21.416
	c-0.224-3.989-5.615-11.58-9.345-11.293c-2.435,0.188-8.866,8.84-10.709,10.904c-4.087,4.578-5.922,8.316-8.177,13.434
	c-3.523,7.996,1.432,9.336,6.619,15.38c6.127,7.137,13.377,13.856,21.222,18.302c3.236,1.833,20.466,7.775,22.001,1.558
	c0.824-3.345-1.151-7.42,3.894-6.425c7.483,1.475,7.917,17.707,11.099,24.336c14.582,30.399,66.158,44.759,106.301,51.01
	c29.721,4.629,72.043,14.17,90.143-8.178c6.839-15.395,10.68-30.197,19.859-44c8.497-12.778,23.882-23.483,24.92-41.079
	c0.594-10.042-4.259-17.227-7.203-24.337c-1.062-6.078-3.035-11.242-4.479-16.939c-7.049-5.895-20.684-6.882-31.734-5.061
	c6.007-6.113,20.896-3.543,30.761-3.311c0.205-7.801,2.821-12.629,3.7-20.053c-9.643-4.564-20.99-1.786-32.904-2.922
	c-2.281-0.217-4.06-2.539-3.893-4.866c0.866-12.119,25.329-4.218,32.902-0.584c1.402,0.673,2.358,3.95,5.062,2.726
	c3.396-12.451-5.617-24.717-7.205-36.02c-23.808-19.844-72.541-21.125-112.142-18.3c-1.032-0.06-0.587,1.36-1.558,1.362
	C227.372,105.552,227.146,94.616,222.244,88.354z M365.537,132.356c-0.56,2.9-3.491,5.215-1.946,8.955
	c4.412,0.186,10.795-3.176,12.654,0.779c-2.144,1.757-8.295-0.756-12.07,1.363c3.102,14.745-7.234,28.856-4.673,42.832
	c1.001,0.613,1.876-0.461,2.726,0c-4.981,2.33-0.305,12.158,0.584,16.744c1.952,10.064,6.647,19.965,9.346,28.618
	c3.726,2.244,7.83,4.112,10.902,7.01c2.814-6.847,3.319-17.544,2.336-26.478c-3.901-2.096-8.347-3.45-13.822-3.505
	c4.156-2.351,11.837-0.467,13.822,1.751c-0.458-24.276-13.815-41.479-17.912-60.158c-2.625-11.984,11.528,7.862,12.852,7.981
	c3.055,0.274,3.164-4.173,0.388-5.062C379.601,143.418,375.719,134.223,365.537,132.356z M132.88,332.305
	c2.971-9.425-0.055-24.845,7.398-29.788c0.967,0.693-0.543,1.795-0.389,2.92c1.278-0.991,2.139-2.402,2.725-4.088
	c-6.789-4.779-14.781-11.092-18.885-19.469c-3.109-6.344-7.928-17.606-14.991-18.886c-8.368-1.514-14.012-1.646-20.247-4.478
	c-6.23-2.828-10.407-8.277-15.771-12.85c-4.287-3.656-10.834-5.257-15.38,0c-7.171,12.467-0.26,28.854,4.866,38.744
	C81.942,304.198,109.74,315.921,132.88,332.305z M145.146,303.101c2.231,2.961,4.543,5.842,6.814,8.762
	c2.631-0.355,3.114-2.856,4.867-4.089c-1.373-1.104-5.026,0.949-6.23-0.585c-0.216-1.059,1.065-0.621,0.973-1.557
	C149.694,304.643,147.437,303.032,145.146,303.101z"/>
<g>
	<path fill-rule="evenodd" clip-rule="evenodd" fill="#33545E" d="M62.206,284.411c-5.126-9.891-12.037-26.277-4.866-38.744
		c4.546-5.257,11.093-3.656,15.38,0c5.364,4.572,9.541,10.021,15.771,12.85c6.235,2.831,11.879,2.964,20.247,4.478
		c7.063,1.279,11.882,12.542,14.991,18.886c4.104,8.377,12.096,14.689,18.885,19.469c-0.586,1.686-1.446,3.097-2.725,4.088
		c-0.154-1.125,1.355-2.227,0.389-2.92c-7.453,4.943-4.428,20.363-7.398,29.788C109.74,315.921,81.942,304.198,62.206,284.411z"/>
	<path fill-rule="evenodd" clip-rule="evenodd" fill="#33545E" d="M380.723,153.188c2.776,0.889,2.667,5.336-0.388,5.062
		c-1.323-0.119-15.477-19.966-12.852-7.981c4.097,18.68,17.454,35.882,17.912,60.158c-1.985-2.218-9.666-4.102-13.822-1.751
		c5.476,0.055,9.921,1.409,13.822,3.505c0.983,8.934,0.479,19.631-2.336,26.478c-3.072-2.897-7.177-4.766-10.902-7.01
		c-2.698-8.653-7.394-18.554-9.346-28.618c-0.889-4.586-5.565-14.414-0.584-16.744c-0.85-0.461-1.725,0.613-2.726,0
		c-2.562-13.976,7.774-28.087,4.673-42.832c3.775-2.119,9.927,0.394,12.07-1.363c-1.859-3.955-8.242-0.594-12.654-0.779
		c-1.545-3.74,1.387-6.055,1.946-8.955C375.719,134.223,379.601,143.418,380.723,153.188z"/>
	<path fill-rule="evenodd" clip-rule="evenodd" fill="#33545E" d="M356.776,311.668c-7.646,1.251-20.199,3.134-22.584-4.479
		c4.146,1.559,11.012,3.292,15.77,0.975c-4.519-1.9-12.025,0.766-16.354-2.531c-0.225-1.786-1.404-2.619-1.946-4.088
		c0.361-0.742,1.586-0.621,1.946-1.363c-1.187-4.682,3.772-9.639,5.646-13.822C341.841,298.048,348.948,305.219,356.776,311.668z
		 M334.775,300.181c2.495,0.61,6.529,2.098,8.567,0.195C341.885,298.375,337.422,300.295,334.775,300.181z"/>
</g>
<path opacity="0.1" fill-rule="evenodd" clip-rule="evenodd" fill="#010101" d="M329.593,194.285c0,0,24.238,1.46,22.777,5.55
	C350.911,203.923,333.389,201.294,329.593,194.285z"/>
<path opacity="0.1" fill-rule="evenodd" clip-rule="evenodd" fill="#010101" d="M251.038,195.94c0,0-32.706-3.504-39.715,1.168
	C204.314,201.781,237.897,210.541,251.038,195.94z"/>
<path fill-rule="evenodd" clip-rule="evenodd" d="M94.721,108.798c6.427-15.218,13.415-32.424,25.894-41.664
	c1.615-1.195,10.889-4.867,10.123-7.593c-0.195-0.702-1.949-1.187-2.725-1.169c-6.057,0.14-14.822,11.461-14.822,11.461
	S95.471,93.42,94.721,108.798z"/>
<path opacity="0.1" fill-rule="evenodd" clip-rule="evenodd" fill="#010101" d="M330.177,218.329c0,0,10.514,18.398-18.105,23.652
	c0,0-18.982,0.585-30.078-1.166c0,0-11.152-2.951-9.52-9.361c0,0,24.704-0.569,29.961-9.037c0,0,12.266,8.76,22.777,1.168
	L330.177,218.329z"/>
<path fill-rule="evenodd" clip-rule="evenodd" d="M355.024,117.17c1.138-1.589,7.701-5.2,7.203-7.203
	C361.741,108.013,354.185,114.405,355.024,117.17z"/>
<path fill-rule="evenodd" clip-rule="evenodd" d="M94.721,109.577c-1.583,0.883-1.094,3.839-1.362,6.035
	C94.963,114.81,95.021,111.665,94.721,109.577z"/>
<path fill-rule="evenodd" clip-rule="evenodd" d="M275.979,145.206c4.924,2.856,3.989,12.559-3.115,11.876
	c-12.938-1.243-28.663-6.786-44.391-5.842c-18.587,1.117-36.564,1.084-50.814,6.815c18.814-16.864,63.916-21.025,95.983-13.629
	L275.979,145.206z"/>
<path fill-rule="evenodd" clip-rule="evenodd" fill="#343D51" d="M221.075,170.321c11.096-3.203,25.596,1.141,33.099,4.867
	C247.804,168.431,229.936,164.392,221.075,170.321z"/>
<path fill-rule="evenodd" clip-rule="evenodd" fill="#010101" d="M299.926,219.968c4.049,9.486,25.88,11.783,29.593,0.391
	c7.217,12.862-9.912,20.211-21.415,21.998c10.147,2.818,18.261-3.119,23.168-8.565c8.077-18.49-12.544-30.964-19.664-45.364
	c-2.358-4.768-3.558-9.731-0.973-14.796c0.054-0.313-0.185-0.335-0.194-0.585c-1.6-0.373-3.457,3.715-3.701,5.258
	c-2.387,15.074,16.74,25.223,20.249,36.796C331.286,229.279,305.243,226.906,299.926,219.968z"/>
<path fill-rule="evenodd" clip-rule="evenodd" fill="#343D51" d="M333.413,174.604c3.793,0.193,9.699,1.17,13.239,2.53
	C346.585,173.187,336.705,172.644,333.413,174.604z"/>
<path fill-rule="evenodd" clip-rule="evenodd" d="M365.147,174.604c2.068,1.327,6.281,1.479,8.566,1.947
	C373.837,173.099,367.29,173.348,365.147,174.604z"/>
<path fill-rule="evenodd" clip-rule="evenodd" d="M193.818,186.286c22.108-0.184,51.776-9.338,69.7,3.504
	c-2.559-8.9-15.869-9.406-26.283-10.124C221.218,178.562,206.554,184.118,193.818,186.286z"/>
<path fill-rule="evenodd" clip-rule="evenodd" d="M75.058,187.649c0.492,2.76,2.758,4.758,5.256,4.867
	C79.335,190.119,76.86,189.219,75.058,187.649z"/>
<path fill-rule="evenodd" clip-rule="evenodd" d="M367.095,195.63c3.221,1.201,9.729-0.865,13.434,1.364
	C379.223,192.35,370.554,193.994,367.095,195.63z"/>
<path fill-rule="evenodd" clip-rule="evenodd" fill="#343D51" d="M335.554,196.021c-0.377,0.841,0.031,2.382,1.17,2.336
	C337.022,197.594,336.636,196.031,335.554,196.021z"/>
<path fill-rule="evenodd" clip-rule="evenodd" fill="#343D51" d="M340.617,197.577c-0.448,0.797-0.243,2.386,0.778,2.337
	c0.006-0.188,0.238-0.151,0.389-0.194C341.835,198.565,341.755,197.542,340.617,197.577z"/>
<path fill-rule="evenodd" clip-rule="evenodd" d="M65.712,198.161c-0.49,0.587,0.064,1.378,0.973,1.17
	C66.765,198.536,66.485,198.103,65.712,198.161z"/>
<path fill-rule="evenodd" clip-rule="evenodd" fill="#343D51" d="M234.509,197.968c-0.193,0-0.389,0-0.584,0
	c-0.162,1.049,0.296,3.048,1.169,3.698C237.052,200.827,234.376,199.403,234.509,197.968z"/>
<path fill-rule="evenodd" clip-rule="evenodd" fill="#343D51" d="M230.031,197.968c-0.264,1.337-0.288,4.026,1.362,4.089
	C232.226,200.784,231.63,198.056,230.031,197.968z"/>
<path fill-rule="evenodd" clip-rule="evenodd" fill="#343D51" d="M224.774,198.356c-0.265,0.578-0.281,1.411,0.195,1.752
	C226.013,200.138,226.067,198.101,224.774,198.356z"/>
<path fill-rule="evenodd" clip-rule="evenodd" fill="#343D51" d="M238.208,199.331c0.139,1.16,0.363,2.232,1.169,2.726
	C241.26,201.871,239.829,197.665,238.208,199.331z"/>
<path fill-rule="evenodd" clip-rule="evenodd" fill="#343D51" d="M352.882,208.286c-0.166,1.074,0.386,1.432,1.169,1.557
	C355.14,209.069,353.79,207.063,352.882,208.286z"/>
<path fill-rule="evenodd" clip-rule="evenodd" fill="#343D51" d="M204.138,208.87c-1.375-0.268-1.774,1.613-0.974,2.336
	c0.39,0,0.778,0,1.168,0C204.954,210.763,204.841,209.116,204.138,208.87z"/>
<path fill-rule="evenodd" clip-rule="evenodd" fill="#343D51" d="M188.757,210.038c-1.248,0.506-0.88,2.775,0.974,2.336
	c0.108-0.279,0.304-0.475,0.583-0.584C190.349,210.653,189.808,210.091,188.757,210.038z"/>
<path fill-rule="evenodd" clip-rule="evenodd" fill="#343D51" d="M350.351,214.905c-0.114,0.959,0.188,1.5,1.169,1.363
	C352.332,215.621,351.347,214.21,350.351,214.905z"/>
<path fill-rule="evenodd" clip-rule="evenodd" fill="#343D51" d="M194.402,218.995c-0.024,0.479-0.028,0.938,0.194,1.168
	c0.784,0.199,0.866-0.303,1.169-0.584C195.592,218.935,195.05,218.66,194.402,218.995z"/>
<path fill-rule="evenodd" clip-rule="evenodd" fill="#343D51" d="M358.335,220.358c-0.117,1.154,0.4,1.673,1.557,1.557
	c0.086-0.174,0.17-0.35,0.389-0.39C360.559,220.184,359.093,219.489,358.335,220.358z"/>
<path fill-rule="evenodd" clip-rule="evenodd" fill="#343D51" d="M210.757,222.693C212.417,219.231,206.659,222.108,210.757,222.693
	L210.757,222.693z"/>
<path fill-rule="evenodd" clip-rule="evenodd" fill="#343D51" d="M222.049,220.941c-1.87,0.761,0.11,3.794,1.363,1.946
	C223.595,221.603,222.968,221.126,222.049,220.941z"/>
<path fill-rule="evenodd" clip-rule="evenodd" d="M374.688,225.224c2.06,1.074,5.515,0.05,7.397,1.558
	C383.957,223.405,374.899,222.541,374.688,225.224z"/>
<path fill-rule="evenodd" clip-rule="evenodd" d="M72.72,226.781C77.497,240.191,59.397,226.513,72.72,226.781L72.72,226.781z
	 M72.524,228.729C67.112,226.856,71.748,234.453,72.524,228.729L72.524,228.729z"/>
<path fill-rule="evenodd" clip-rule="evenodd" fill="#6FB4E3" d="M72.524,228.729C67.112,226.856,71.748,234.453,72.524,228.729
	L72.524,228.729z"/>
<path fill-rule="evenodd" clip-rule="evenodd" fill="#343D51" d="M359.502,228.729c-0.633,0.654-0.296,1.929,0.974,1.753
	c0.101-0.288,0.287-0.492,0.39-0.779C360.82,228.968,360.357,228.651,359.502,228.729z"/>
<path fill-rule="evenodd" clip-rule="evenodd" fill="#343D51" d="M272.474,231.454c-3.271,8.012,7.715,11.43,14.213,10.318
	C281.592,238.692,272.946,239.159,272.474,231.454z"/>
<path fill-rule="evenodd" clip-rule="evenodd" fill="#343D51" d="M285.324,236.127c1.743-1.21,12.437,2.165,12.655-0.194
	C298.171,233.854,285.495,231.84,285.324,236.127z"/>
<path fill-rule="evenodd" clip-rule="evenodd" d="M84.401,235.933c0.926,1.477,1.329,3.472,1.168,6.035
	c-2.44,4.377-8.346,1.324-9.15-2.531C76.661,235.101,80.438,234.759,84.401,235.933z M81.481,237.491
	c-1.604-0.371-3.09-0.067-3.31,1.362C77.104,245.772,89.415,239.321,81.481,237.491z"/>
<path fill-rule="evenodd" clip-rule="evenodd" fill="#6FB4E3" d="M81.481,237.491c-1.604-0.371-3.09-0.067-3.31,1.362
	C77.104,245.772,89.415,239.321,81.481,237.491z"/>
<path fill-rule="evenodd" clip-rule="evenodd" d="M95.304,254.623c-5.574-1.142-8.141-12.341,0.975-11.293
	C105.701,244.415,103.958,256.396,95.304,254.623z M100.951,250.34c1.517-6.862-10.734-7.229-9.345-1.167
	C92.394,252.618,98.916,254.036,100.951,250.34z"/>
<path fill-rule="evenodd" clip-rule="evenodd" fill="#6FB4E3" d="M100.951,250.34c1.517-6.862-10.734-7.229-9.345-1.167
	C92.394,252.618,98.916,254.036,100.951,250.34z"/>
<path fill-rule="evenodd" clip-rule="evenodd" d="M211.341,260.464c-1.479-1.373-10.243-7.838-9.929-10.707
	c0.154-1.418,1.017-1.43,1.946-0.975c35.146,17.203,95.617-0.54,133.559,13.238c-3.183-1.623-6.1,0.24-8.177,2.727
	c-5.533,6.622-10.312,17.812-13.434,26.479c3.361,0.199,6.21-3.893,8.956-1.752c-1.693,1.615-4.234,2.385-7.009,2.92
	c-35.087,16.388-74.709-3.855-94.036-21.611C220.284,267.111,215.909,264.702,211.341,260.464z M225.554,258.127
	c-0.77,13.034,12.816,11.716,20.248,16.55c-3.76,4.041-10.369-5.312-13.045,0.389c16.518,14.438,46.056,26.865,75.735,18.496
	c-1.184-4.312,1.036-9.531-1.362-13.045c-1.519-0.623-4.064-0.219-5.646-0.779c11.477-1.373,18.305-7.395,20.248-18.301
	C292.801,253.321,255.483,261.081,225.554,258.127z"/>
<path fill-rule="evenodd" clip-rule="evenodd" d="M60.843,251.118c0.99,3.071,11.453,4.895,15.382,3.115
	C71.335,253.047,65.083,253.35,60.843,251.118z"/>
<path fill-rule="evenodd" clip-rule="evenodd" fill="#FFFFFF" d="M225.554,258.127c-0.77,13.034,12.816,11.716,20.248,16.55
	c-3.76,4.041-10.369-5.312-13.045,0.389c16.518,14.438,46.056,26.865,75.735,18.496c-1.184-4.312,1.036-9.531-1.362-13.045
	c-1.519-0.623-4.064-0.219-5.646-0.779c11.477-1.373,18.305-7.395,20.248-18.301C292.801,253.321,255.483,261.081,225.554,258.127z"
	/>
<path fill-rule="evenodd" clip-rule="evenodd" d="M70.036,272.042c1.943,1.131,6.127,0.584,9.15-0.473
	C77.508,270.549,72.31,271.781,70.036,272.042z"/>
<path fill-rule="evenodd" clip-rule="evenodd" d="M95.81,268.161c-0.261-0.375-1.867,0.152-2.086,0.377
	C94.169,268.99,95.276,268.257,95.81,268.161z"/>
<path fill-rule="evenodd" clip-rule="evenodd" d="M82.729,270.729c2.389,0.064,8.508-0.307,9.801-1.975
	C89.613,269.093,85.872,269.968,82.729,270.729z"/>
<path fill-rule="evenodd" clip-rule="evenodd" d="M92.509,287.262c8.752,0.581,21.294-2.719,30.315-3.95
	c-0.021-0.193-0.043-0.387-0.064-0.581C113.937,283.692,101.931,285.766,92.509,287.262z"/>
<path fill-rule="evenodd" clip-rule="evenodd" d="M133.073,300.96c-1.025-0.055-1.867,0.079-2.336,0.584
	C130.812,302.598,133.649,302.388,133.073,300.96z"/>
<path fill-rule="evenodd" clip-rule="evenodd" fill="#3C4D56" d="M145.146,303.101c2.231,2.961,4.543,5.842,6.814,8.762
	c2.631-0.355,3.114-2.856,4.867-4.089c-1.373-1.104-5.026,0.949-6.23-0.585c-0.216-1.059,1.065-0.621,0.973-1.557
	C149.694,304.643,147.437,303.032,145.146,303.101z"/>
<path fill-rule="evenodd" clip-rule="evenodd" fill="#343D51" d="M289.802,310.305c1.632,3.729,23.123,1.372,22.585-1.558
	c-0.058-0.316,0.095-0.739-0.39-0.779C305.707,307.454,296.454,312.017,289.802,310.305z"/>
<path fill-rule="evenodd" clip-rule="evenodd" d="M115.302,314.586c3.934,0.838,12.238,0.239,16.755-1.356
	c-0.019-0.193-0.035-0.387-0.053-0.582C126.913,312.936,120.39,314.169,115.302,314.586z"/>
<path opacity="0.1" fill-rule="evenodd" clip-rule="evenodd" fill="#010101" d="M174.917,230.885c0,0,4.089,3.798,2.045,8.761
	c-2.045,4.965-7.009,6.133-7.009,6.133S169.077,233.222,174.917,230.885z"/>
<path fill-rule="evenodd" clip-rule="evenodd" fill="#343D51" d="M176.102,232.817c-0.481,3.08,0.086,7.033-1.558,10.125
	C177.46,242.615,179.81,234.696,176.102,232.817z"/>
<g>
	<g>
		<path fill-rule="evenodd" clip-rule="evenodd" fill="#598CA3" d="M215.624,81.347c0.08,0.469-0.355,0.424-0.193,0.974
			c0.984,0.117,1.559,0.646,2.725,0.584C218.274,81.51,216.851,80.763,215.624,81.347z"/>
		<path fill-rule="evenodd" clip-rule="evenodd" fill="#598CA3" d="M215.04,93.028c1.407-0.01,2.82,0.895,4.089,0.389
			c0.589-1.604-0.021-4.917,0.194-7.398C214.688,79.068,212.111,87.59,215.04,93.028z"/>
		<path fill-rule="evenodd" clip-rule="evenodd" fill="#598CA3" d="M214.456,94.586c0.052,4.054,0.576,9.394,4.673,7.009
			c0.033-1.584-0.388-4.068-0.778-5.842C217.08,95.336,215.978,94.751,214.456,94.586z"/>
		<path fill-rule="evenodd" clip-rule="evenodd" fill="#598CA3" d="M216.794,104.125c0.268,1.938,1.427,2.984,2.919,3.7
			C219.912,106.351,219.231,102.34,216.794,104.125z"/>
	</g>
	<g>
		<path fill-rule="evenodd" clip-rule="evenodd" fill="#598CA3" d="M344.706,103.347c-1.675,1.99-4.257,5.047-4.089,7.593
			c2.853-0.013,3.2-4.19,5.451-5.451c0.236-0.987-0.839-1.354-0.39-1.946c16.57,6.143,33.538,11.889,43.61,24.531
			c-2.494,3.021-6.604,4.428-9.345,7.203c4.003,1.664,6.587-4.305,10.708-5.062c3.461,2.646,5.059,9.254,3.31,14.797
			c-3.341,0.441-6.442,2.1-9.539,2.141c-4.339-7.797-8.469-15.803-15.576-20.83c2.851-1.953,5.834-3.771,8.372-6.037
			c-3.612-1.594-6.995,3.419-9.735,5.258c-12.682-7.437-27.023-13.213-42.053-18.301c0.349-2.703,2.864-3.236,3.115-6.036
			c-3.388-2.524-2.535,4.817-5.646,5.646c-2.775,0.74-13.793-2.465-14.018-3.309c-0.541-2.031,5.195-4.176,1.559-6.036
			c-1.76,1.552-2.406,4.214-3.895,6.036c-4.451,0.141-8.949-0.416-13.045-1.168c-0.082-1.42,1.754-1.828,0.975-3.311
			c-2.117-0.729-2.475,1.92-3.312,3.115c-9.624-0.777-20.163-1.121-28.814-0.974C287.191,96.748,322.496,93.825,344.706,103.347z
			 M355.024,118.339c1.138-1.59,7.701-5.2,7.203-7.204C361.741,109.181,354.185,115.573,355.024,118.339z"/>
		<path fill-rule="evenodd" clip-rule="evenodd" fill="#598CA3" d="M385.202,149.294c0.472,2.511-0.019,4.976-0.196,7.398
			C390.61,154.452,395.787,143.53,385.202,149.294z"/>
	</g>
	<g>
		<path fill-rule="evenodd" clip-rule="evenodd" fill="#598CA3" d="M331.467,152.409c-5.39-3.652-11.978,7.837-3.114,5.646
			C329.36,156.144,331.169,155.034,331.467,152.409z"/>
		<path fill-rule="evenodd" clip-rule="evenodd" fill="#598CA3" d="M331.661,158.25c3.053,0.64,4.762-1.72,5.062-4.479
			C333.259,151.937,332.015,155.31,331.661,158.25z"/>
		<path fill-rule="evenodd" clip-rule="evenodd" fill="#598CA3" d="M339.448,154.55c-0.508,1.115-1.529,1.717-1.558,3.311
			c2.296,1.576,4.316-0.771,4.868-2.725C342.085,154.511,340.78,154.517,339.448,154.55z"/>
		<path fill-rule="evenodd" clip-rule="evenodd" fill="#598CA3" d="M343.927,158.056c0.998,1.432,3.407-0.027,3.309-1.558
			C346.237,154.909,343.559,157.052,343.927,158.056z"/>
		<path fill-rule="evenodd" clip-rule="evenodd" fill="#598CA3" d="M348.21,159.419c1.076,0.869,2.354-0.354,2.727-1.363
			C349.907,157.233,347.938,157.767,348.21,159.419z"/>
		<path fill-rule="evenodd" clip-rule="evenodd" fill="#598CA3" d="M352.493,158.25c-0.127,0.677-0.64,1.7-0.391,2.142
			c1.205,0.1,1.216-0.991,2.531-0.778C354.327,158.753,353.601,158.31,352.493,158.25z"/>
	</g>
	<g>
		<path fill-rule="evenodd" clip-rule="evenodd" fill="#598CA3" d="M374.883,160.003c1.722,11.57,9.293,23.895,11.681,37.38
			c0.931,0.398,1.985-0.205,3.31,0c0.629-6.282,0.581-14.886-5.45-15.771c0.196-1.424,2.973-0.271,3.698-1.168
			c-0.232-4.568-1.338-8.266-2.919-11.486c-2.015-0.971-5.771-0.201-7.398-1.558c1.488-1.048,4.198-0.991,6.034-1.169
			c-0.019-2.252-1.236-3.307-1.945-4.867C379.077,161.31,377.986,158.628,374.883,160.003z"/>
		<path fill-rule="evenodd" clip-rule="evenodd" fill="#598CA3" d="M387.538,199.524c-0.245,3.288-0.534,9.837,1.946,11.682
			C389.357,208.466,392.237,199.836,387.538,199.524z"/>
	</g>
	<g>
		<path fill-rule="evenodd" clip-rule="evenodd" fill="#598CA3" d="M354.634,285.774c-0.738-2.766-2.148-4.859-3.697-6.815
			c-2.172,0.62-2.6,2.982-5.258,3.115c-0.57-2.616,4.271-3.362,4.479-5.257c0.422-3.875-6.1,0.549-6.035,4.479
			c0.051,3.197-1.891,8.084,1.362,11.098C349.542,291.959,351.46,287.736,354.634,285.774z"/>
		<path fill-rule="evenodd" clip-rule="evenodd" fill="#598CA3" d="M347.042,294.534c3.47,6.914,8.092,12.676,14.99,16.16
			c2.877-1.217,9.957-6.823,3.505-8.566c-0.743,2.826-3.765,3.374-4.478,6.23c-0.519,0-1.038,0-1.558,0
			c3.206-3.724,7.114-8.834,0.974-12.071c-3.498,0.808-4.451,5.716-8.956,4.283c1.97-2.04,6.739-3.511,7.204-6.425
			C360.217,284.763,349.13,289.873,347.042,294.534z"/>
	</g>
	<g>
		<path fill-rule="evenodd" clip-rule="evenodd" fill="#598CA3" d="M141.058,130.993c-3.762,3.961,1.695,6.683,5.84,5.256
			c-0.031-0.226,0.043-0.346,0.195-0.389C145.313,134.056,144.901,128.929,141.058,130.993z"/>
		<path fill-rule="evenodd" clip-rule="evenodd" fill="#598CA3" d="M139.305,136.64c-2.245,3.152-1.659,9.06-1.947,13.629
			c1.424,1.44,5.954,0.779,7.788,1.167c0.59-3.899,1.221-8.756,1.168-12.655C144.132,137.912,141.244,137.751,139.305,136.64z"/>
		<path fill-rule="evenodd" clip-rule="evenodd" fill="#598CA3" d="M137.357,152.798c0.019,3.629-0.259,9.513,1.169,12.851
			c1.498,0.839,4.668,0.003,5.062,1.946c-0.643,1.619-2.678-0.039-4.284,0.195c1.181,4.942,0.595,14.965,7.009,15.965
			c-0.398-10.258-1.645-20.606-1.363-30.957C142.593,153.384,139.798,151.899,137.357,152.798z"/>
		<path fill-rule="evenodd" clip-rule="evenodd" fill="#598CA3" d="M143.977,185.507c0.507,3.806,2.534,7.699,4.479,10.709
			C147.442,192.377,149.034,184.021,143.977,185.507z"/>
	</g>
	<g>
		<path fill-rule="evenodd" clip-rule="evenodd" fill="#598CA3" d="M228.279,143.454c-1.503,1.548-2.704,3.395-3.31,5.84
			c1.845,0.584,3.985-0.147,6.035,0c1.575-1.176,1.762-6.329,4.674-4.283c-0.148,1.734-1.713,2.053-1.754,3.895
			c1.478,0.534,3.404,0.621,5.452,0.584c2.151-0.783,1.323-6.354,4.478-4.867c-0.038,2.104-1.458,2.824-1.558,4.867
			c4.932,3.434,5.474-3.166,8.177-4.867c2.672,1.904-1.582,3.709-1.557,6.035c6.086,4.277,4.834-8.247,9.539-5.257
			c-0.996,1.989-2.576,3.394-2.92,6.035c0.924,0.145,2.023,0.604,2.92,0.195c0.848-2.787,2.521-5.786,3.894-7.399
			C251.907,142.356,239.755,142.429,228.279,143.454z"/>
		<path fill-rule="evenodd" clip-rule="evenodd" fill="#598CA3" d="M213.677,145.4c0.45,2.059-1.424,3.165-2.141,4.673
			c3.944,1.189,4.113-3.006,6.814-3.699c0.448-0.059,0.216,0.562,0.584,0.584c0.08,1.248-1.17,1.167-0.975,2.531
			c1.239,0.341,3.418,0.26,4.674,0c0.201-2.33,1.864-3.197,2.336-5.258C221.801,143.819,217.465,145.179,213.677,145.4z"/>
		<path fill-rule="evenodd" clip-rule="evenodd" fill="#598CA3" d="M262.936,144.231c1.521,2.548-2.013,4.256-2.144,7.009
			c5.037,2.954,6.604-2.507,7.983-6.034C266.972,144.739,264.952,143.889,262.936,144.231z"/>
		<path fill-rule="evenodd" clip-rule="evenodd" fill="#598CA3" d="M192.456,151.825c3.213,0.031,5.728-0.632,8.566-0.973
			c0.391-2.402,4.348-3.502,3.31-0.195c2.12-0.443,4.051-0.34,6.035-0.584c-0.13-2.143,1.247-2.777,1.752-4.283
			C204.745,146.206,197.099,148.03,192.456,151.825z"/>
		<path fill-rule="evenodd" clip-rule="evenodd" fill="#598CA3" d="M276.562,150.269c-0.778,1.168-1.896,1.996-2.142,3.697
			C276.214,154.675,277.657,151.854,276.562,150.269z"/>
		<path fill-rule="evenodd" clip-rule="evenodd" fill="#598CA3" d="M271.719,145.562c-2.173,2.021-3.724,4.664-5.215,7.366
			c4.784,3.459,6.237-2.339,8.956-4.284C275.46,148.645,276.223,145.725,271.719,145.562z"/>
	</g>
	<g>
		<path fill-rule="evenodd" clip-rule="evenodd" fill="#598CA3" d="M85.011,182.14c2.129-1.145,3.865,0.463,5.08,1.834
			c-4.926,7.109-11.779,12.166-17.704,18.213c-1.806-0.326-2.519-2.705-4.507-2.216c0.736,1.632,2.831,1.905,3.154,3.946
			c-5.404,5.154-9.257,17.023-17.761,10.033c5.958,2.307,7.867,7.9,1.7,11.905c0.47,2.122-0.322,3.458-1.211,4.653
			c-4.479,0.726-7.007-1.398-10.19-1.723c1.372,3.336,6.65,1.643,9.405,3.463c0.044,3.762-0.615,8.44-0.957,12.446
			c-2.127,1.503-6.497,0.621-9.482,1.21c2.076,1.74,6.014,0.719,8.685,1.309c0.001,3.781-1.085,8.073-1.147,12.443
			c-1.404,1.939-6.215,0.26-7.791,2.016c9.41-2.814,9.633,6.777,11.891,13.628c-1.867,1.117-4.43,1.496-6.844,2.03
			c-7.145-8.617-9.312-20.811-8.52-34.991c1.449-25.934,22.188-41.507,36.276-55.104c2.208-4.056,5.546-6.909,9.421-9.194
			C85.255,179.2,83.667,181.537,85.011,182.14z M75.079,187.819c0.436,2.768,2.604,4.803,5.029,4.95
			C79.196,190.357,76.807,189.419,75.079,187.819z M65.827,198.187c-0.484,0.578,0.042,1.376,0.928,1.182
			C66.846,198.575,66.581,198.138,65.827,198.187z"/>
		<path fill-rule="evenodd" clip-rule="evenodd" fill="#598CA3" d="M49.124,279.113c3.739,5.067,8.271,9.366,14.013,12.493
			C58.754,287.715,58.13,274.196,49.124,279.113z"/>
	</g>
</g>
<path opacity="0.1" fill-rule="evenodd" clip-rule="evenodd" fill="#010101" d="M88.167,230.667c0,0-16-7.5-21.667-18.834
	c0,0,10.667-13.666,14-13.666s8.333,5,9.167,9.666c0.833,4.668-0.5,15.334,1.333,17.168C92.833,226.833,98,237.333,88.167,230.667z"
	/>
</svg>
