<?xml version="1.0" encoding="utf-8"?>
<!-- Generator: Adobe Illustrator 15.0.0, SVG Export Plug-In . SVG Version: 6.00 Build 0)  -->
<!DOCTYPE svg PUBLIC "-//W3C//DTD SVG 1.1//EN" "http://www.w3.org/Graphics/SVG/1.1/DTD/svg11.dtd">
<svg version="1.1" id="Layer_1" xmlns="http://www.w3.org/2000/svg" xmlns:xlink="http://www.w3.org/1999/xlink" x="0px" y="0px"
	 width="159.992px" height="17.205px" viewBox="0 0 159.992 17.205" enable-background="new 0 0 159.992 17.205"
	 xml:space="preserve">
<g>
	<g>
		<g>
			<path fill="#475165" d="M1.812,1.908c0.55,0,1.201,0.403,1.446,0.895l3.855,7.748c0.245,0.492,0.645,0.491,0.888-0.002
				l3.817-7.744c0.243-0.493,0.892-0.897,1.442-0.897h0.485c0.55,0,1,0.45,1,1v12.083c0,0.55-0.398,1-0.884,1s-0.884-0.45-0.884-1
				V5.416c0-0.55-0.199-0.596-0.442-0.103l-3.951,8.013c-0.243,0.493-0.709,0.897-1.036,0.897s-0.792-0.404-1.035-0.897L2.493,5.156
				C2.25,4.663,2.051,4.709,2.051,5.259v9.732c0,0.55-0.398,1-0.884,1s-0.884-0.45-0.884-1V2.908c0-0.55,0.45-1,1-1H1.812z"/>
		</g>
		<g>
			<path fill="#475165" d="M20.253,2.758c-0.357,0-0.638-0.101-0.839-0.302c-0.202-0.201-0.303-0.47-0.303-0.806
				c0-0.336,0.101-0.604,0.303-0.806c0.201-0.202,0.481-0.302,0.839-0.302c0.358,0,0.646,0.101,0.862,0.302
				c0.216,0.202,0.325,0.47,0.325,0.806c0,0.335-0.109,0.604-0.325,0.806C20.899,2.658,20.612,2.758,20.253,2.758z M19.38,6.266
				c0-0.55,0.398-1,0.884-1s0.884,0.45,0.884,1v8.725c0,0.55-0.398,1-0.884,1s-0.884-0.45-0.884-1V6.266z"/>
		</g>
		<g>
			<path fill="#475165" d="M30.329,6.789c-1.687,0-2.56,1.329-2.619,3.985v4.217c0,0.55-0.398,1-0.884,1s-0.884-0.45-0.884-1V6.266
				c0-0.55,0.398-1,0.884-1s0.884,0.45,0.884,1v0.06c0,0.55,0.249,0.625,0.553,0.167c0,0,0.933-1.406,2.291-1.406
				c0.433,0,0.843,0.067,1.231,0.202l-0.09,1.724C31.247,6.863,30.792,6.789,30.329,6.789z"/>
		</g>
		<g>
			<path fill="#475165" d="M41.121,10.05c0-0.55-0.054-1.447-0.12-1.993c0,0-0.081-0.671-0.484-1.089s-0.989-0.627-1.758-0.627
				S37.371,6.494,36.9,6.8c-0.47,0.306-0.705,0.788-0.705,1.444h-0.948c-0.55,0-0.858-0.427-0.685-0.949
				c0,0,0.566-1.708,2.328-2.096c0.537-0.119,1.119-0.179,1.746-0.179c1.328,0,2.365,0.335,3.112,1.007
				c0.746,0.672,1.119,1.694,1.119,3.067v5.896c0,0.55-0.343,1-0.761,1s-0.801-0.403-0.851-0.896s-0.391-0.562-0.76-0.154
				c0,0-1.173,1.296-2.89,1.296c-1.149,0-2.07-0.321-2.765-0.962s-1.041-1.44-1.041-2.396c0-0.955,0.384-1.702,1.153-2.239
				c0.769-0.538,1.728-0.806,2.877-0.806s2.246,0.194,3.291,0.582V10.05z M41.121,11.535c-1.06-0.298-1.985-0.448-2.776-0.448
				s-1.433,0.142-1.926,0.425c-0.492,0.284-0.738,0.731-0.738,1.343c0,1.344,0.761,2.015,2.283,2.015
				c0.866,0,1.608-0.31,2.229-0.929C40.811,13.323,41.121,12.521,41.121,11.535z"/>
		</g>
		<g>
			<path fill="#475165" d="M48.636,6.353C48.689,6.9,49.018,7,49.366,6.574c0,0,1.271-1.554,2.972-1.554
				c1.269,0,2.258,0.418,2.967,1.253c0.709,0.836,1.063,1.978,1.063,3.426v5.292c0,0.55-0.393,1-0.873,1s-0.873-0.45-0.873-1v-4.292
				c0-0.55-0.06-1.446-0.133-1.991c0,0-0.11-0.814-0.594-1.337c-0.485-0.522-1.176-0.784-2.071-0.784s-1.62,0.366-2.172,1.097
				c-0.553,0.731-0.844,1.747-0.873,3.045v4.262c0,0.55-0.398,1-0.884,1s-0.884-0.45-0.884-1V6.289c0-0.55,0.343-1,0.761-1
				s0.805,0.448,0.858,0.995L48.636,6.353z"/>
		</g>
		<g>
			<path fill="#475165" d="M67.541,6.878V1.744c0-0.55,0.393-1,0.873-1s0.873,0.45,0.873,1v13.247c0,0.55-0.322,1-0.716,1
				s-0.767-0.403-0.829-0.896s-0.364-0.523-0.673-0.067c0,0-0.237,0.351-0.805,0.694s-1.187,0.515-1.858,0.515
				c-1.358,0-2.496-0.522-3.414-1.567s-1.377-2.407-1.377-4.086s0.451-3.026,1.354-4.041c0.902-1.015,2.045-1.522,3.426-1.522
				C65.775,5.02,66.824,5.64,67.541,6.878z M64.496,6.587c-0.866,0-1.594,0.366-2.184,1.097c-0.59,0.731-0.884,1.709-0.884,2.933
				c0,1.224,0.298,2.206,0.896,2.944c0.597,0.739,1.313,1.108,2.149,1.108s1.548-0.28,2.138-0.84s0.899-1.31,0.93-2.25v-0.747
				c0-0.55-0.072-1.444-0.16-1.987c0,0-0.131-0.804-0.713-1.386C66.084,6.878,65.361,6.587,64.496,6.587z"/>
		</g>
		<g>
			<path fill="#475165" d="M80.458,10.05c0-0.55-0.054-1.447-0.12-1.993c0,0-0.081-0.671-0.484-1.089s-0.989-0.627-1.758-0.627
				S76.708,6.494,76.238,6.8c-0.47,0.306-0.705,0.788-0.705,1.444h-0.948c-0.55,0-0.858-0.427-0.685-0.949
				c0,0,0.566-1.708,2.328-2.096c0.537-0.119,1.119-0.179,1.746-0.179c1.328,0,2.365,0.335,3.112,1.007
				c0.746,0.672,1.119,1.694,1.119,3.067v5.896c0,0.55-0.343,1-0.761,1s-0.801-0.403-0.851-0.896s-0.391-0.562-0.76-0.154
				c0,0-1.173,1.296-2.89,1.296c-1.149,0-2.07-0.321-2.765-0.962s-1.041-1.44-1.041-2.396c0-0.955,0.384-1.702,1.153-2.239
				c0.769-0.538,1.728-0.806,2.877-0.806s2.246,0.194,3.291,0.582V10.05z M80.458,11.535c-1.06-0.298-1.985-0.448-2.776-0.448
				s-1.433,0.142-1.926,0.425c-0.492,0.284-0.738,0.731-0.738,1.343c0,1.344,0.761,2.015,2.283,2.015
				c0.866,0,1.608-0.31,2.229-0.929C80.149,13.323,80.458,12.521,80.458,11.535z"/>
		</g>
		<g>
			<path fill="#475165" d="M92.583,1.908c0.486,0,0.884,0.45,0.884,1v4.202c0,0.55,0.45,1,1,1h4.918c0.55,0,1-0.45,1-1V2.908
				c0-0.55,0.398-1,0.884-1s0.884,0.45,0.884,1v12.083c0,0.55-0.398,1-0.884,1s-0.884-0.45-0.884-1v-4.358c0-0.55-0.45-1-1-1h-4.918
				c-0.55,0-1,0.45-1,1v4.358c0,0.55-0.398,1-0.884,1s-0.884-0.45-0.884-1V2.908C91.699,2.358,92.097,1.908,92.583,1.908z"/>
		</g>
		<g>
			<path fill="#475165" d="M110.527,5.02c1.492,0,2.698,0.485,3.616,1.455c0.918,0.971,1.377,2.359,1.377,4.165
				c0,1.791-0.459,3.172-1.377,4.142s-2.124,1.455-3.616,1.455c-1.493,0-2.698-0.485-3.616-1.455s-1.377-2.351-1.377-4.142
				c0-1.806,0.459-3.194,1.377-4.165C107.829,5.505,109.034,5.02,110.527,5.02z M113.729,10.628c0-1.276-0.27-2.276-0.807-3
				s-1.324-1.086-2.362-1.086c-1.037,0-1.832,0.362-2.384,1.086c-0.553,0.724-0.829,1.724-0.829,3s0.262,2.276,0.784,3
				c0.522,0.725,1.302,1.086,2.34,1.086c1.037,0,1.839-0.361,2.406-1.086C113.445,12.905,113.729,11.905,113.729,10.628z"/>
		</g>
		<g>
			<path fill="#475165" d="M122.751,5.02c1.492,0,2.698,0.485,3.616,1.455c0.918,0.971,1.377,2.359,1.377,4.165
				c0,1.791-0.459,3.172-1.377,4.142s-2.124,1.455-3.616,1.455c-1.493,0-2.698-0.485-3.616-1.455s-1.377-2.351-1.377-4.142
				c0-1.806,0.459-3.194,1.377-4.165C120.053,5.505,121.258,5.02,122.751,5.02z M125.954,10.628c0-1.276-0.27-2.276-0.807-3
				s-1.324-1.086-2.362-1.086c-1.037,0-1.832,0.362-2.384,1.086c-0.553,0.724-0.829,1.724-0.829,3s0.262,2.276,0.784,3
				c0.522,0.725,1.302,1.086,2.34,1.086c1.037,0,1.839-0.361,2.406-1.086C125.669,12.905,125.954,11.905,125.954,10.628z"/>
		</g>
		<g>
			<path fill="#475165" d="M130.263,5.289c0.548,0,1.15,0.423,1.339,0.939l2.539,6.965c0.188,0.517,0.498,0.517,0.688,0l2.557-6.966
				c0.189-0.517,0.793-0.939,1.341-0.939s0.831,0.418,0.627,0.929l-3.516,8.844c-0.204,0.511-0.808,0.929-1.343,0.929
				s-1.14-0.418-1.343-0.929l-3.516-8.844C129.433,5.707,129.715,5.289,130.263,5.289z"/>
		</g>
		<g>
			<path fill="#475165" d="M146.082,14.804c1.478,0,2.32-0.649,2.529-1.948h0.813c0.55,0,0.857,0.427,0.683,0.948
				c0,0-0.321,0.959-1.104,1.548c-0.784,0.59-1.758,0.884-2.922,0.884c-1.434,0-2.598-0.511-3.493-1.534
				c-0.896-1.022-1.344-2.384-1.344-4.086s0.451-3.06,1.354-4.075s2.105-1.522,3.605-1.522s2.619,0.582,3.358,1.746
				c0.738,1.165,0.996,2.583,0.772,4.254h-6.321c-0.55,0-0.94,0.446-0.868,0.991c0,0,0.136,1.021,0.673,1.729
				S145.111,14.804,146.082,14.804z M147.379,6.699c-0.343-0.179-0.761-0.269-1.254-0.269c-0.91,0-1.631,0.31-2.16,0.929
				c-0.53,0.62-0.84,1.392-0.93,2.317h5.71C148.746,8.185,148.29,7.191,147.379,6.699z"/>
		</g>
		<g>
			<path fill="#475165" d="M158.283,6.789c-1.687,0-2.56,1.329-2.619,3.985v4.217c0,0.55-0.398,1-0.884,1s-0.884-0.45-0.884-1V6.266
				c0-0.55,0.398-1,0.884-1s0.884,0.45,0.884,1v0.06c0,0.55,0.249,0.625,0.553,0.167c0,0,0.933-1.406,2.291-1.406
				c0.433,0,0.843,0.067,1.231,0.202l-0.09,1.724C159.201,6.863,158.746,6.789,158.283,6.789z"/>
		</g>
	</g>
</g>
</svg>
