<?xml version="1.0" encoding="utf-8"?>
<!-- Generator: Adobe Illustrator 15.0.0, SVG Export Plug-In . SVG Version: 6.00 Build 0)  -->
<!DOCTYPE svg PUBLIC "-//W3C//DTD SVG 1.1//EN" "http://www.w3.org/Graphics/SVG/1.1/DTD/svg11.dtd">
<svg version="1.1" id="Layer_1" xmlns="http://www.w3.org/2000/svg" xmlns:xlink="http://www.w3.org/1999/xlink" x="0px" y="0px"
	 width="186px" height="186.001px" viewBox="-55.5 -51.202 186 186.001" enable-background="new -55.5 -51.202 186 186.001"
	 xml:space="preserve">
<text transform="matrix(1 0 0 1 192.1211 -153.6299)" fill="#686868" font-family="'Roboto-Light'" font-size="33.2607">Ready, Start...</text>
<g>
	<path fill="none" stroke="#686868" stroke-width="3" stroke-miterlimit="10" d="M-279.558-40.417c0,0,58,18,68,92
		c10,74-61,189-87,216c-26-27-97-142-87-216c10-74,68-92,68-92"/>
	<circle fill="none" stroke="#686868" stroke-width="3" stroke-miterlimit="10" cx="-298.558" cy="126.5" r="33"/>
	<g>
		<path fill="none" stroke="#686868" stroke-width="3" stroke-miterlimit="10" d="M-342.177,202.578c0,0-51.381-1.078-49.381,37.922
			s56,76,56,76s-4-64.857,21-69.429"/>
		<path fill="none" stroke="#686868" stroke-width="3" stroke-miterlimit="10" d="M-254.939,202.578c0,0,51.381-1.078,49.381,37.922
			s-56,76-56,76s4-64.857-21-69.429"/>
	</g>
	<path fill="none" stroke="#686868" stroke-width="3" stroke-miterlimit="10" d="M-278.402-28.5c0,0-18.061-118-18.061-160h-3.82
		c0,42-18.061,160-18.061,160s2.062,9,19.787,7.666"/>
	<g>
		<path fill="none" stroke="#686868" stroke-width="3" stroke-miterlimit="10" d="M-281.83,259.537c0,0,8,1.963,7,20.963
			s-23,51-23,85h-1.457c0-34-22-66-23-85s7-20.963,7-20.963"/>
		<path fill="none" stroke="#686868" stroke-width="3" stroke-miterlimit="10" d="M-308.593,267.584c0,0-10.114,2.916,7.886,33.916"
			/>
	</g>
	<circle fill="none" stroke="#686868" stroke-width="3" stroke-miterlimit="10" cx="-298.558" cy="-194.821" r="6.679"/>
	<g>
		<path fill="none" stroke="#686868" stroke-width="3" stroke-miterlimit="10" d="M-384.688,89.917c0,0,10.985,18.69,44.261,27.51"
			/>
		<path fill="none" stroke="#686868" stroke-width="3" stroke-miterlimit="10" d="M-212.428,89.917c0,0-10.985,18.69-44.261,27.51"
			/>
	</g>
	<g>
		<circle fill="#686868" cx="-298.558" cy="168.336" r="3.31"/>
		<circle fill="#686868" cx="-298.558" cy="84.664" r="3.31"/>
	</g>
	<path fill="none" stroke="#686868" stroke-width="3" stroke-miterlimit="10" d="M-296.558,152.166
		c-15.28,0-27.667-12.386-27.667-27.666"/>
	<g>
		<circle fill="#686868" cx="-340.394" cy="126.5" r="3.31"/>
		<circle fill="#686868" cx="-256.722" cy="126.5" r="3.31"/>
	</g>
	<g>
		<circle fill="#686868" cx="-328.141" cy="156.083" r="3.31"/>
		<circle fill="#686868" cx="-268.976" cy="96.917" r="3.31"/>
	</g>
	<g>
		<circle fill="#686868" cx="-328.14" cy="96.917" r="3.31"/>
		<circle fill="#686868" cx="-268.975" cy="156.083" r="3.31"/>
	</g>
</g>
<g>
	<path fill="#686868" d="M171.561,101.227l0.012-0.697c0.166-8.889,3.873-27.885,10.631-46.984
		c5.834-16.491,15.875-38.499,30.574-49.7c13.938-10.619,27.182-12.15,35.84-11.561c9.396,0.635,15.406,3.75,15.66,3.885
		l-0.629,1.189c-0.057-0.031-6.059-3.129-15.188-3.736c-8.412-0.559-21.287,0.947-34.869,11.293
		c-26.74,20.377-39.99,78.606-40.65,94.932c16.326-0.662,74.555-13.914,94.928-40.654c10.365-13.604,11.861-26.504,11.291-34.93
		c-0.619-9.117-3.703-15.066-3.732-15.125l1.189-0.629c0.133,0.252,3.248,6.264,3.885,15.662c0.588,8.654-0.941,21.9-11.562,35.84
		c-11.197,14.697-33.209,24.738-49.697,30.572c-19.102,6.76-38.094,10.463-46.982,10.631L171.561,101.227z"/>
	<path fill="#686868" d="M206.072,66.715c-6.039-6.037-6.039-15.859,0-21.901c6.037-6.037,15.859-6.037,21.898,0.004
		c6.037,6.038,6.037,15.86,0,21.897C221.932,72.752,212.109,72.752,206.072,66.715z M227.018,45.767
		c-5.512-5.51-14.482-5.51-19.992,0c-5.514,5.516-5.514,14.483-0.002,19.999c5.51,5.512,14.482,5.512,19.994-0.004
		C232.529,60.25,232.529,51.279,227.018,45.767z"/>
	<g>
		<path fill="#686868" d="M144.572,105.801l-0.252-1.352c-0.225-1.197-5.322-29.361,6.508-42.467
			c3.051-3.387,6.662-5.133,10.725-5.193c9.275-0.143,17.615,8.455,17.967,8.812l-0.973,0.93c-0.074-0.088-8.293-8.529-16.975-8.398
			c-3.676,0.061-6.957,1.656-9.744,4.75c-9.953,11.029-7.275,34.121-6.404,39.955c4.078-4.371,19.986-20.412,28.639-14.439
			l-0.766,1.109c-8.793-6.074-27.623,15.049-27.812,15.26L144.572,105.801z"/>
		<path fill="#686868" d="M166.986,128.215l1.033-0.91c0.215-0.191,21.33-19.023,15.262-27.812l1.107-0.766
			c5.971,8.648-10.066,24.559-14.439,28.639c5.834,0.869,28.934,3.545,39.955-6.404c3.094-2.791,4.691-6.072,4.746-9.75
			c0.133-8.688-8.309-16.887-8.398-16.971l0.932-0.973c0.365,0.352,8.955,8.693,8.812,17.967c-0.057,4.064-1.803,7.674-5.188,10.727
			c-13.111,11.828-41.273,6.732-42.469,6.508L166.986,128.215z"/>
	</g>
	<path fill="#686868" d="M262.164,8.431c-4.936-4.936-2.898-8.342-2.803-8.492l0.068-0.107l0.104-0.076
		c0.432-0.318,43.291-31.84,56.432-44.98l0.477-0.477l2.164,2.164l-0.477,0.477c-13.139,13.141-44.66,56.002-44.979,56.432
		l-1.084-0.797c0.312-0.426,31.158-42.369,44.637-56.109l-0.266-0.264c-13.365,13.115-53.443,42.676-55.984,44.547
		c-0.26,0.555-1.24,3.443,3.764,7.75l-0.877,1.021C262.912,9.15,262.518,8.785,262.164,8.431z"/>
	<g>
		<path fill="#686868" d="M141.404,132.799l-1.414-1.41l0.477-0.479c6.27-6.273,9.889-14.623,13.08-21.988
			c2.227-5.135,4.15-9.574,6.568-12.262c6.018-6.686,9.576-4.648,9.725-4.557l-0.697,1.152c-0.016-0.008-2.842-1.455-8.025,4.303
			c-2.271,2.527-4.154,6.869-6.334,11.902c-2.621,6.041-5.523,12.74-9.951,18.494c5.754-4.426,12.451-7.33,18.494-9.949
			c5.033-2.182,9.377-4.062,11.902-6.336c5.771-5.191,4.322-7.994,4.303-8.027l1.152-0.693c0.092,0.148,2.131,3.709-4.557,9.721
			c-2.688,2.422-7.125,4.344-12.264,6.572c-7.363,3.189-15.713,6.811-21.982,13.084L141.404,132.799z"/>
		<path fill="#686868" d="M160.15,110.449c2.1-7.914,4.51-12.5,7.158-13.629c1.191-0.506,1.992-0.104,2.078-0.051l-0.652,1.176
			l0.326-0.586l-0.303,0.598c-0.014-0.008-0.379-0.164-1.012,0.143c-1.252,0.596-3.732,3.043-6.295,12.697L160.15,110.449z"/>
	</g>
	<path fill="#686868" d="M316.4-43.612c-1.434-1.432-1.432-3.762,0-5.193c1.432-1.43,3.758-1.43,5.191,0.002
		c1.43,1.43,1.43,3.76,0,5.189C320.16-42.182,317.83-42.18,316.4-43.612z M320.639-47.852c-0.908-0.906-2.381-0.908-3.287-0.002
		c-0.908,0.906-0.906,2.383,0,3.289c0.904,0.906,2.381,0.906,3.289,0C321.545-45.471,321.543-46.946,320.639-47.852z"/>
	<g>
		<path fill="#686868" d="M206.029,39.939c-7.811-13.445-5.486-22.889-5.385-23.287l1.305,0.338
			c-0.025,0.092-2.264,9.344,5.248,22.27L206.029,39.939z"/>
		<path fill="#686868" d="M232.85,66.754l0.676-1.164c12.93,7.514,22.178,5.271,22.271,5.252l0.338,1.301
			C255.74,72.246,246.293,74.57,232.85,66.754z"/>
	</g>
	<path fill="#686868" d="M209.035,65.023c-5.105-5.104-5.107-13.41-0.002-18.514l0.953,0.953c-4.58,4.579-4.578,12.032,0,16.608
		L209.035,65.023z"/>
	<g>
		<g>
			<path fill="#686868" d="M204.793,70.092c-0.58,0.582-1.521,0.582-2.102,0.004c-0.58-0.582-0.578-1.523,0.002-2.102
				c0.58-0.582,1.52-0.582,2.1,0C205.373,68.572,205.373,69.514,204.793,70.092z"/>
			<circle fill="#686868" cx="230.298" cy="42.489" r="1.485"/>
		</g>
		<g>
			<circle fill="#686868" cx="203.742" cy="42.489" r="1.485"/>
			<path fill="#686868" d="M229.248,70.092c-0.582-0.578-0.578-1.52,0.002-2.098c0.58-0.582,1.516-0.582,2.096,0
				c0.582,0.578,0.582,1.52,0.004,2.098C230.768,70.674,229.828,70.674,229.248,70.092z"/>
		</g>
		<g>
			<path fill="#686868" d="M198.242,57.252c-0.818,0-1.482-0.666-1.484-1.486c0-0.818,0.664-1.484,1.484-1.484
				s1.486,0.666,1.486,1.488C199.729,56.586,199.062,57.252,198.242,57.252z"/>
			<path fill="#686868" d="M235.797,57.252c-0.822,0-1.486-0.666-1.486-1.482c0-0.822,0.666-1.488,1.488-1.488
				c0.816,0,1.482,0.666,1.482,1.488C237.281,56.586,236.617,57.252,235.797,57.252z"/>
		</g>
		<g>
			<path fill="#686868" d="M215.533,36.992c0.004-0.822,0.67-1.488,1.488-1.486c0.82-0.002,1.486,0.664,1.486,1.486
				c0,0.816-0.666,1.482-1.488,1.486C216.199,38.476,215.535,37.812,215.533,36.992z"/>
			<path fill="#686868" d="M215.537,74.547c0-0.822,0.664-1.488,1.482-1.488c0.822,0,1.488,0.666,1.486,1.488
				c0,0.816-0.664,1.482-1.486,1.482C216.201,76.029,215.537,75.363,215.537,74.547z"/>
		</g>
	</g>
</g>
<text transform="matrix(1 0 0 1 90.1211 286.2148)" fill="#686868" font-family="'Roboto-Light'" font-size="33.2607">Ready, Start...</text>
<g>
	<path fill="#686868" d="M-23.93,310.217l0.013-0.697c0.166-8.889,3.873-27.885,10.631-46.984
		c5.833-16.491,15.875-38.499,30.573-49.7c13.938-10.619,27.183-12.15,35.84-11.561c9.396,0.635,15.407,3.75,15.661,3.885
		l-0.629,1.189c-0.057-0.031-6.059-3.129-15.188-3.736c-8.412-0.559-21.288,0.947-34.869,11.293
		c-26.74,20.377-39.991,78.606-40.651,94.933c16.325-0.662,74.555-13.914,94.928-40.654c10.365-13.604,11.861-26.505,11.291-34.931
		c-0.619-9.117-3.703-15.066-3.732-15.125l1.189-0.629c0.133,0.252,3.248,6.264,3.885,15.662c0.588,8.654-0.941,21.9-11.562,35.841
		c-11.198,14.697-33.209,24.738-49.697,30.572c-19.103,6.76-38.095,10.463-46.983,10.631L-23.93,310.217z"/>
	<path fill="#686868" d="M10.582,275.705c-6.039-6.037-6.039-15.859,0-21.901c6.037-6.037,15.86-6.037,21.899,0.004
		c6.037,6.038,6.037,15.86,0,21.897C26.442,281.742,16.619,281.742,10.582,275.705z M31.528,254.757
		c-5.513-5.51-14.482-5.51-19.993,0c-5.513,5.517-5.513,14.483-0.002,19.999c5.511,5.512,14.482,5.512,19.995-0.004
		C37.039,269.24,37.039,260.27,31.528,254.757z"/>
	<g>
		<path fill="#686868" d="M-50.918,314.791l-0.252-1.352c-0.225-1.197-5.322-29.361,6.509-42.467
			c3.051-3.387,6.662-5.133,10.724-5.193c9.275-0.143,17.616,8.455,17.968,8.812l-0.973,0.93c-0.075-0.088-8.294-8.529-16.976-8.398
			c-3.676,0.061-6.956,1.656-9.744,4.75c-9.954,11.029-7.275,34.121-6.404,39.955c4.077-4.371,19.985-20.412,28.638-14.439
			l-0.765,1.109c-8.794-6.074-27.625,15.049-27.814,15.26L-50.918,314.791z"/>
		<path fill="#686868" d="M-28.504,337.205l1.034-0.91c0.214-0.191,21.331-19.023,15.262-27.812l1.106-0.766
			c5.972,8.648-10.065,24.559-14.439,28.639c5.835,0.869,28.934,3.545,39.955-6.404c3.094-2.791,4.691-6.072,4.747-9.75
			c0.131-8.688-8.308-16.887-8.398-16.971l0.931-0.973c0.365,0.352,8.954,8.693,8.812,17.967c-0.058,4.064-1.804,7.674-5.188,10.727
			c-13.111,11.828-41.275,6.732-42.469,6.508L-28.504,337.205z"/>
	</g>
	<path fill="#686868" d="M66.675,217.421c-4.936-4.936-2.899-8.342-2.804-8.492l0.069-0.107l0.104-0.076
		c0.432-0.318,43.291-31.84,56.432-44.98l0.477-0.477l2.164,2.164l-0.477,0.477c-13.139,13.141-44.66,56.002-44.979,56.432
		l-1.084-0.797c0.312-0.426,31.158-42.369,44.637-56.109l-0.266-0.264c-13.365,13.115-53.443,42.676-55.984,44.547
		c-0.26,0.555-1.24,3.443,3.764,7.75l-0.877,1.021C67.423,218.14,67.028,217.774,66.675,217.421z"/>
	<g>
		<path fill="#686868" d="M-54.086,341.789l-1.414-1.41l0.477-0.479c6.27-6.273,9.889-14.623,13.081-21.988
			c2.226-5.135,4.15-9.574,6.568-12.262c6.016-6.686,9.576-4.648,9.725-4.557l-0.699,1.152c-0.014-0.008-2.84-1.455-8.025,4.303
			c-2.271,2.527-4.153,6.869-6.334,11.902c-2.621,6.041-5.523,12.74-9.951,18.494c5.754-4.426,12.452-7.33,18.495-9.949
			c5.032-2.182,9.376-4.062,11.901-6.336c5.771-5.191,4.322-7.994,4.303-8.027l1.153-0.693c0.092,0.148,2.129,3.709-4.558,9.721
			c-2.687,2.422-7.125,4.344-12.263,6.572c-7.365,3.189-15.714,6.811-21.984,13.084L-54.086,341.789z"/>
		<path fill="#686868" d="M-35.34,319.439c2.101-7.914,4.51-12.5,7.16-13.629c1.19-0.506,1.991-0.104,2.078-0.051l-0.652,1.176
			l0.326-0.586l-0.303,0.598c-0.013-0.008-0.379-0.164-1.011,0.143c-1.253,0.596-3.733,3.043-6.296,12.697L-35.34,319.439z"/>
	</g>
	<path fill="#686868" d="M120.911,165.378c-1.434-1.432-1.432-3.762,0-5.193c1.432-1.43,3.758-1.43,5.191,0.002
		c1.43,1.43,1.43,3.76,0,5.189C124.671,166.808,122.341,166.81,120.911,165.378z M125.149,161.138
		c-0.908-0.906-2.381-0.908-3.287-0.002c-0.908,0.906-0.906,2.383,0,3.289c0.904,0.906,2.381,0.906,3.289,0
		C126.056,163.519,126.054,162.044,125.149,161.138z"/>
	<g>
		<path fill="#686868" d="M10.54,248.929c-7.812-13.445-5.487-22.889-5.385-23.287l1.304,0.338
			c-0.024,0.092-2.263,9.344,5.248,22.27L10.54,248.929z"/>
		<path fill="#686868" d="M37.36,275.744l0.676-1.164c12.93,7.514,22.178,5.271,22.271,5.252l0.338,1.301
			C60.251,281.236,50.804,283.561,37.36,275.744z"/>
	</g>
	<g>
		<path fill="#686868" d="M9.304,279.082c-0.581,0.582-1.521,0.582-2.102,0.004c-0.58-0.582-0.578-1.523,0.002-2.102
			c0.58-0.582,1.519-0.582,2.1,0C9.884,277.562,9.884,278.504,9.304,279.082z"/>
		<circle fill="#686868" cx="34.808" cy="251.479" r="1.485"/>
	</g>
	<path fill="#686868" d="M13.545,274.014c-5.104-5.104-5.106-13.41-0.002-18.515l0.953,0.953c-4.58,4.579-4.578,12.032,0,16.608
		L13.545,274.014z"/>
	<g>
		<circle fill="#686868" cx="8.253" cy="251.479" r="1.485"/>
		<path fill="#686868" d="M33.757,279.082c-0.582-0.578-0.578-1.52,0.002-2.098c0.58-0.582,1.518-0.582,2.098,0
			c0.582,0.578,0.582,1.52,0.004,2.098C35.279,279.664,34.337,279.664,33.757,279.082z"/>
	</g>
	<g>
		<path fill="#686868" d="M2.752,266.242c-0.818,0-1.482-0.666-1.484-1.486c0.001-0.818,0.665-1.484,1.484-1.484
			c0.821,0,1.487,0.666,1.487,1.488C4.24,265.576,3.574,266.242,2.752,266.242z"/>
		<path fill="#686868" d="M40.307,266.242c-0.822,0-1.485-0.666-1.485-1.482c0-0.822,0.666-1.488,1.487-1.488
			c0.817,0,1.483,0.666,1.483,1.488C41.792,265.576,41.128,266.242,40.307,266.242z"/>
	</g>
	<g>
		<path fill="#686868" d="M20.042,245.981c0.004-0.822,0.67-1.488,1.489-1.486c0.819-0.002,1.485,0.664,1.485,1.486
			c0,0.816-0.666,1.482-1.487,1.486C20.708,247.466,20.044,246.802,20.042,245.981z"/>
		<path fill="#686868" d="M20.046,283.537c0-0.822,0.664-1.488,1.483-1.488c0.821,0,1.487,0.666,1.485,1.488
			c0,0.816-0.664,1.482-1.485,1.482C20.71,285.02,20.046,284.354,20.046,283.537z"/>
	</g>
</g>
<g>
	<path fill="none" stroke="#686868" stroke-width="4" stroke-miterlimit="10" d="M492.657,0.774c0,0,58,18,68,92
		c10,74-61,189-87,216c-26-27-97-142-87-216c10-74,68-92,68-92"/>
	<circle fill="none" stroke="#686868" stroke-width="4" stroke-miterlimit="10" cx="473.657" cy="167.69" r="33"/>
	<g>
		<path fill="none" stroke="#686868" stroke-width="4" stroke-miterlimit="10" d="M430.038,243.769c0,0-51.381-1.078-49.381,37.922
			s56,76,56,76s-4-64.857,21-69.429"/>
		<path fill="none" stroke="#686868" stroke-width="4" stroke-miterlimit="10" d="M517.276,243.769c0,0,51.381-1.078,49.381,37.922
			s-56,76-56,76s4-64.857-21-69.429"/>
	</g>
	<path fill="none" stroke="#686868" stroke-width="4" stroke-miterlimit="10" d="M493.813,12.69c0,0-18.061-118-18.061-160h-3.82
		c0,42-18.062,160-18.062,160s2.062,9,19.786,7.666"/>
	<g>
		<path fill="none" stroke="#686868" stroke-width="4" stroke-miterlimit="10" d="M490.386,300.728c0,0,8,1.963,7,20.963
			s-23,51-23,85h-1.456c0-34-22-66-23-85s7-20.963,7-20.963"/>
		<path fill="none" stroke="#686868" stroke-width="4" stroke-miterlimit="10" d="M463.623,308.774c0,0-10.114,2.916,7.886,33.916"
			/>
	</g>
	<circle fill="none" stroke="#686868" stroke-width="4" stroke-miterlimit="10" cx="473.658" cy="-153.63" r="6.679"/>
	<g>
		<path fill="none" stroke="#686868" stroke-width="4" stroke-miterlimit="10" d="M387.527,131.107c0,0,10.985,18.69,44.261,27.51"
			/>
		<path fill="none" stroke="#686868" stroke-width="4" stroke-miterlimit="10" d="M559.788,131.107c0,0-10.984,18.69-44.261,27.51"
			/>
	</g>
	<g>
		<circle fill="#686868" cx="473.658" cy="209.526" r="3.31"/>
		<circle fill="#686868" cx="473.658" cy="125.854" r="3.31"/>
	</g>
	<path fill="none" stroke="#686868" stroke-width="4" stroke-miterlimit="10" d="M475.657,193.356
		c-15.279,0-27.666-12.386-27.666-27.666"/>
	<g>
		<circle fill="#686868" cx="431.821" cy="167.69" r="3.31"/>
		<circle fill="#686868" cx="515.493" cy="167.69" r="3.31"/>
	</g>
	<g>
		<circle fill="#686868" cx="444.075" cy="197.273" r="3.309"/>
		<circle fill="#686868" cx="503.24" cy="138.108" r="3.31"/>
	</g>
	<g>
		<circle fill="#686868" cx="444.076" cy="138.108" r="3.31"/>
		<circle fill="#686868" cx="503.241" cy="197.273" r="3.31"/>
	</g>
</g>
<g>
	<path fill="none" stroke="#FFFFFF" stroke-width="4" stroke-miterlimit="10" d="M813.727,22.446c0,0,58,18,68,92
		c10,74-61,189-87,216c-26-27-97-142-87-216c10-74,68-92,68-92"/>
	<circle fill="none" stroke="#FFFFFF" stroke-width="4" stroke-miterlimit="10" cx="794.727" cy="189.362" r="33"/>
	<g>
		<path fill="none" stroke="#FFFFFF" stroke-width="4" stroke-miterlimit="10" d="M751.107,265.44c0,0-51.381-1.078-49.381,37.922
			s56,76,56,76s-4-64.857,21-69.429"/>
		<path fill="none" stroke="#FFFFFF" stroke-width="4" stroke-miterlimit="10" d="M838.346,265.44c0,0,51.381-1.078,49.381,37.922
			s-56,76-56,76s4-64.857-21-69.429"/>
	</g>
	<path fill="none" stroke="#FFFFFF" stroke-width="4" stroke-miterlimit="10" d="M814.883,34.362c0,0-18.061-118-18.061-160h-3.82
		c0,42-18.062,160-18.062,160s2.062,9,19.786,7.666"/>
	<g>
		<path fill="none" stroke="#FFFFFF" stroke-width="4" stroke-miterlimit="10" d="M811.455,322.399c0,0,8,1.963,7,20.963
			s-23,51-23,85h-1.456c0-34-22-66-23-85s7-20.963,7-20.963"/>
		<path fill="none" stroke="#FFFFFF" stroke-width="4" stroke-miterlimit="10" d="M784.692,330.446c0,0-10.114,2.916,7.886,33.916"
			/>
	</g>
	<circle fill="none" stroke="#FFFFFF" stroke-width="4" stroke-miterlimit="10" cx="794.727" cy="-131.958" r="6.679"/>
	<g>
		<path fill="none" stroke="#FFFFFF" stroke-width="4" stroke-miterlimit="10" d="M708.597,152.779c0,0,10.985,18.69,44.261,27.51"
			/>
		<path fill="none" stroke="#FFFFFF" stroke-width="4" stroke-miterlimit="10" d="M880.857,152.779c0,0-10.984,18.69-44.261,27.51"
			/>
	</g>
	<path fill="none" stroke="#FFFFFF" stroke-width="4" stroke-miterlimit="10" d="M796.727,215.028
		c-15.279,0-27.666-12.386-27.666-27.666"/>
	<g>
		<g>
			<circle fill="#FFFFFF" cx="794.728" cy="231.198" r="3.31"/>
			<circle fill="#FFFFFF" cx="794.728" cy="147.526" r="3.31"/>
		</g>
		<g>
			<circle fill="#FFFFFF" cx="752.891" cy="189.362" r="3.31"/>
			<circle fill="#FFFFFF" cx="836.562" cy="189.362" r="3.31"/>
		</g>
		<g>
			<circle fill="#FFFFFF" cx="765.145" cy="218.945" r="3.309"/>
			<circle fill="#FFFFFF" cx="824.31" cy="159.78" r="3.31"/>
		</g>
		<g>
			<circle fill="#FFFFFF" cx="765.145" cy="159.78" r="3.31"/>
			<circle fill="#FFFFFF" cx="824.31" cy="218.945" r="3.31"/>
		</g>
	</g>
</g>
<g>
	<path fill="none" stroke="#FFFFFF" stroke-width="4" stroke-miterlimit="10" d="M79.641,414.228c0,0,12.605,23.951-7.564,50.424
		C51.907,491.124-6.71,504.99-23.413,505.306c0.315-16.703,14.181-75.32,40.654-95.489c26.473-20.17,50.424-7.564,50.424-7.564"/>
	<circle fill="none" stroke="#FFFFFF" stroke-width="4" stroke-miterlimit="10" cx="21.049" cy="460.843" r="14.708"/>
	<g>
		<path fill="none" stroke="#FFFFFF" stroke-width="4" stroke-miterlimit="10" d="M-16.673,471.072c0,0-15.853-16.531-27.513-3.61
			c-11.661,12.921-6.303,41.599-6.303,41.599s19.179-21.7,28.498-15.262"/>
		<path fill="none" stroke="#FFFFFF" stroke-width="4" stroke-miterlimit="10" d="M10.82,498.565c0,0,16.532,15.853,3.611,27.513
			c-12.921,11.661-41.599,6.304-41.599,6.304s21.7-19.179,15.262-28.498"/>
	</g>
	<path fill="none" stroke="#FFFFFF" stroke-width="4" stroke-miterlimit="10" d="M76.249,418.348c0,0,31.496-42.879,44.731-56.115
		l-1.204-1.204c-13.235,13.237-56.115,44.732-56.115,44.732s-2.186,3.485,3.82,8.65"/>
	<g>
		<path fill="none" stroke="#FFFFFF" stroke-width="4" stroke-miterlimit="10" d="M-15.605,508.041c0,0,1.902,3.141-4.4,8.813
			c-6.303,5.672-23.321,8.823-34.036,19.538l-0.459-0.459c10.715-10.714,13.867-27.732,19.539-34.035s8.812-4.4,8.812-4.4"/>
		<path fill="none" stroke="#FFFFFF" stroke-width="4" stroke-miterlimit="10" d="M-26.575,502.144c0,0-4.106-2.269-8.203,13.173"/>
	</g>
	<circle fill="none" stroke="#FFFFFF" stroke-width="4" stroke-miterlimit="10" cx="122.312" cy="359.581" r="2.977"/>
	<g>
		<path fill="none" stroke="#FFFFFF" stroke-width="4" stroke-miterlimit="10" d="M5.435,422.171c0,0-2.428,9.353,5.279,22.618"/>
		<path fill="none" stroke="#FFFFFF" stroke-width="4" stroke-miterlimit="10" d="M59.723,476.458c0,0-9.353,2.429-22.618-5.278"/>
	</g>
	<path fill="none" stroke="#FFFFFF" stroke-width="4" stroke-miterlimit="10" d="M13.591,469.562
		c-4.815-4.815-4.816-12.622,0-17.438"/>
	<g>
		<g>
			<circle fill="#FFFFFF" cx="7.865" cy="474.028" r="1.475"/>
			<circle fill="#FFFFFF" cx="34.234" cy="447.659" r="1.475"/>
		</g>
		<g>
			<circle fill="#FFFFFF" cx="7.865" cy="447.659" r="1.475"/>
			<circle fill="#FFFFFF" cx="34.234" cy="474.028" r="1.474"/>
		</g>
		<g>
			<circle fill="#FFFFFF" cx="2.404" cy="460.844" r="1.475"/>
			<circle fill="#FFFFFF" cx="39.695" cy="460.843" r="1.475"/>
		</g>
		<g>
			<circle fill="#FFFFFF" cx="21.05" cy="442.198" r="1.475"/>
			<circle fill="#FFFFFF" cx="21.05" cy="479.489" r="1.475"/>
		</g>
	</g>
</g>
<g>
	<path fill="#686868" d="M-22.274,101.209l0.016-0.93c0.169-8.889,3.87-27.869,10.622-46.95
		c5.831-16.483,15.87-38.484,30.581-49.693C32.907-7.001,46.179-8.534,54.855-7.945c9.421,0.639,15.462,3.769,15.714,3.901
		l-0.833,1.584c-0.06-0.03-6.021-3.105-15.088-3.704C46.299-6.714,33.515-5.215,20.03,5.061
		C-6.466,25.248-19.657,82.782-20.434,99.369c16.586-0.778,74.121-13.971,94.308-40.465c10.273-13.485,11.774-26.27,11.224-34.619
		C84.5,15.218,81.424,9.258,81.392,9.198l1.586-0.833c0.134,0.252,3.263,6.292,3.903,15.715c0.586,8.675-0.945,21.948-11.583,35.91
		C64.089,74.701,42.088,84.74,25.605,90.571c-19.081,6.75-38.062,10.452-46.951,10.62L-22.274,101.209z"/>
	<path fill="#686868" d="M12.232,66.703c-6.112-6.11-6.112-16.055,0-22.165c6.11-6.112,16.055-6.112,22.165,0
		c6.112,6.11,6.112,16.055,0,22.165C28.287,72.815,18.342,72.815,12.232,66.703z M33.13,45.804c-5.413-5.413-14.22-5.413-19.633,0
		c-5.413,5.414-5.413,14.221,0,19.634c5.414,5.413,14.221,5.413,19.633,0C38.543,60.024,38.543,51.218,33.13,45.804z"/>
	<g>
		<path fill="#686868" d="M-49.111,106.037l-0.337-1.803c-0.224-1.195-5.327-29.403,6.548-42.565
			c3.09-3.423,6.747-5.19,10.867-5.253c9.348-0.14,17.733,8.499,18.091,8.864l-1.293,1.239c-0.079-0.09-8.213-8.445-16.776-8.311
			c-3.601,0.055-6.817,1.625-9.557,4.661c-9.62,10.66-7.321,32.768-6.402,39.228c4.546-4.816,19.985-20.017,28.547-14.101
			l-1.019,1.473c-7.145-4.936-22.241,9.294-27.454,15.193L-49.111,106.037z"/>
		<path fill="#686868" d="M-27.103,128.045l1.374-1.214c5.9-5.215,20.126-20.314,15.192-27.456l1.475-1.017
			c5.916,8.562-9.285,24.001-14.102,28.547c6.459,0.919,28.568,3.218,39.227-6.401c3.038-2.74,4.606-5.958,4.663-9.558
			c0.134-8.563-8.225-16.697-8.312-16.776l1.24-1.292c0.369,0.354,9.004,8.741,8.863,18.089c-0.063,4.121-1.83,7.777-5.254,10.866
			c-13.161,11.877-41.369,6.772-42.562,6.55L-27.103,128.045z"/>
	</g>
	<path fill="#686868" d="M68.204,8.552c-5.055-5.053-2.933-8.597-2.832-8.756l0.09-0.145L65.6-0.449
		c0.432-0.316,43.184-31.758,56.282-44.857l0.633-0.634l2.477,2.477l-0.633,0.633c-13.101,13.1-44.542,55.851-44.857,56.281
		l-1.444-1.059c0.304-0.415,29.278-39.81,43.301-54.698C106.971-28.753,69.69-1.236,66.832,0.869
		c-0.255,0.598-1.023,3.335,3.72,7.418l-1.168,1.358C68.954,9.274,68.56,8.91,68.204,8.552z"/>
	<g>
		<path fill="#686868" d="M-52.137,132.799l-1.727-1.727l0.634-0.633c6.227-6.229,9.828-14.536,13.006-21.868
			c2.231-5.146,4.157-9.59,6.594-12.297c6.022-6.693,9.596-4.824,9.984-4.59l-0.927,1.532c-0.004-0.001-2.705-1.323-7.725,4.255
			c-2.242,2.49-4.114,6.811-6.281,11.812c-2.437,5.621-5.118,11.808-9.047,17.28c5.473-3.932,11.658-6.61,17.279-9.047
			c5.002-2.169,9.32-4.041,11.812-6.284c5.578-5.019,4.255-7.719,4.242-7.746l1.544-0.904c0.234,0.388,2.103,3.962-4.589,9.983
			c-2.707,2.437-7.151,4.363-12.297,6.593c-7.332,3.179-15.64,6.781-21.868,13.008L-52.137,132.799z"/>
		<path fill="#686868" d="M-33.648,110.126c2.114-7.968,4.561-12.593,7.272-13.75c1.285-0.55,2.173-0.096,2.27-0.042l-0.866,1.568
			c0,0,0.014,0.01,0.044,0.022c-0.013-0.004-0.319-0.12-0.873,0.157c-1.207,0.609-3.606,3.042-6.116,12.503L-33.648,110.126z"/>
	</g>
	<path fill="#686868" d="M122.315-43.379c-1.517-1.516-1.517-3.982,0-5.498c1.515-1.516,3.979-1.516,5.495,0
		c1.517,1.516,1.517,3.982,0,5.496C126.295-41.864,123.83-41.864,122.315-43.379z M126.545-47.609c-0.817-0.817-2.146-0.817-2.964,0
		c-0.817,0.816-0.817,2.146,0,2.963c0.817,0.817,2.146,0.817,2.964,0C127.361-45.464,127.363-46.793,126.545-47.609z"/>
	<g>
		<path fill="#686868" d="M12.154,39.94c-7.839-13.494-5.5-23.005-5.397-23.402l1.734,0.448c-0.023,0.09-2.229,9.246,5.211,22.053
			L12.154,39.94z"/>
		<path fill="#686868" d="M38.995,66.78l0.9-1.549c12.807,7.441,21.962,5.235,22.054,5.211l0.447,1.735
			C62,72.28,52.489,74.618,38.995,66.78z"/>
	</g>
	<g>
		<circle fill="#686868" cx="10.066" cy="68.869" r="1.482"/>
		<circle fill="#686868" cx="36.562" cy="42.373" r="1.482"/>
	</g>
	<path fill="#686868" d="M15.186,65.015c-5.179-5.18-5.179-13.608,0-18.788l1.268,1.265c-4.481,4.483-4.481,11.774,0,16.255
		L15.186,65.015z"/>
	<g>
		<circle fill="#686868" cx="10.066" cy="42.373" r="1.481"/>
		<circle fill="#686868" cx="36.561" cy="68.868" r="1.482"/>
	</g>
	<g>
		<circle fill="#686868" cx="4.579" cy="55.621" r="1.482"/>
		<circle fill="#686868" cx="42.048" cy="55.621" r="1.482"/>
	</g>
	<g>
		<circle fill="#686868" cx="23.314" cy="36.886" r="1.482"/>
		<circle fill="#686868" cx="23.314" cy="74.355" r="1.482"/>
	</g>
</g>
</svg>
