<svg xmlns="http://www.w3.org/2000/svg" width="186" height="186.001" viewBox="-55.5 -51.202 186 186.001"><text transform="translate(192.121 -153.63)" fill="#686868" font-family="'Roboto-Light'" font-size="33.261">Ready, Start...</text><path fill="none" stroke="#686868" stroke-width="3" stroke-miterlimit="10" d="M-279.558-40.417s58 18 68 92-61 189-87 216c-26-27-97-142-87-216s68-92 68-92"/><circle fill="none" stroke="#686868" stroke-width="3" stroke-miterlimit="10" cx="-298.558" cy="126.5" r="33"/><path d="M-342.177 202.578s-51.381-1.078-49.381 37.922 56 76 56 76-4-64.857 21-69.429m59.619-44.493s51.381-1.078 49.381 37.922-56 76-56 76 4-64.857-21-69.429m4.156-275.571s-18.061-118-18.061-160h-3.82c0 42-18.061 160-18.061 160s2.062 9 19.787 7.666" fill="none" stroke="#686868" stroke-width="3" stroke-miterlimit="10"/><path d="M-281.83 259.537s8 1.963 7 20.963-23 51-23 85h-1.457c0-34-22-66-23-85s7-20.963 7-20.963m6.694 8.047s-10.114 2.916 7.886 33.916" fill="none" stroke="#686868" stroke-width="3" stroke-miterlimit="10"/><circle fill="none" stroke="#686868" stroke-width="3" stroke-miterlimit="10" cx="-298.558" cy="-194.821" r="6.679"/><path d="M-384.688 89.917s10.985 18.69 44.261 27.51m127.999-27.51s-10.985 18.69-44.261 27.51" fill="none" stroke="#686868" stroke-width="3" stroke-miterlimit="10"/><g fill="#686868"><circle cx="-298.558" cy="168.336" r="3.31"/><circle cx="-298.558" cy="84.664" r="3.31"/></g><path fill="none" stroke="#686868" stroke-width="3" stroke-miterlimit="10" d="M-296.558 152.166c-15.28 0-27.667-12.386-27.667-27.666"/><g fill="#686868"><circle cx="-340.394" cy="126.5" r="3.31"/><circle cx="-256.722" cy="126.5" r="3.31"/></g><g fill="#686868"><circle cx="-328.141" cy="156.083" r="3.31"/><circle cx="-268.976" cy="96.917" r="3.31"/></g><g fill="#686868"><circle cx="-328.14" cy="96.917" r="3.31"/><circle cx="-268.975" cy="156.083" r="3.31"/></g><g fill="#686868"><path d="M171.561 101.227l.012-.697c.166-8.889 3.873-27.885 10.631-46.984 5.834-16.491 15.875-38.499 30.574-49.7 13.938-10.619 27.182-12.15 35.84-11.561 9.396.635 15.406 3.75 15.66 3.885l-.629 1.189c-.057-.031-6.059-3.129-15.188-3.736-8.412-.559-21.287.947-34.869 11.293-26.74 20.377-39.99 78.606-40.65 94.932 16.326-.662 74.555-13.914 94.928-40.654 10.365-13.604 11.861-26.504 11.291-34.93-.619-9.117-3.703-15.066-3.732-15.125l1.189-.629c.133.252 3.248 6.264 3.885 15.662.588 8.654-.941 21.9-11.562 35.84-11.197 14.697-33.209 24.738-49.697 30.572-19.102 6.76-38.094 10.463-46.982 10.631l-.701.012z"/><path d="M206.072 66.715c-6.039-6.037-6.039-15.859 0-21.901 6.037-6.037 15.859-6.037 21.898.004 6.037 6.038 6.037 15.86 0 21.897-6.038 6.037-15.861 6.037-21.898 0zm20.946-20.948c-5.512-5.51-14.482-5.51-19.992 0-5.514 5.516-5.514 14.483-.002 19.999 5.51 5.512 14.482 5.512 19.994-.004 5.511-5.512 5.511-14.483 0-19.995zm-82.446 60.034l-.252-1.352c-.225-1.197-5.322-29.361 6.508-42.467 3.051-3.387 6.662-5.133 10.725-5.193 9.275-.143 17.615 8.455 17.967 8.812l-.973.93c-.074-.088-8.293-8.529-16.975-8.398-3.676.061-6.957 1.656-9.744 4.75-9.953 11.029-7.275 34.121-6.404 39.955 4.078-4.371 19.986-20.412 28.639-14.439l-.766 1.109c-8.793-6.074-27.623 15.049-27.812 15.26l-.913 1.033zm22.414 22.414l1.033-.91c.215-.191 21.33-19.023 15.262-27.812l1.107-.766c5.971 8.648-10.066 24.559-14.439 28.639 5.834.869 28.934 3.545 39.955-6.404 3.094-2.791 4.691-6.072 4.746-9.75.133-8.688-8.309-16.887-8.398-16.971l.932-.973c.365.352 8.955 8.693 8.812 17.967-.057 4.064-1.803 7.674-5.188 10.727-13.111 11.828-41.273 6.732-42.469 6.508l-1.353-.255zM262.164 8.431c-4.936-4.936-2.898-8.342-2.803-8.492l.068-.107.104-.076c.432-.318 43.291-31.84 56.432-44.98l.477-.477 2.164 2.164-.477.477c-13.139 13.141-44.66 56.002-44.979 56.432l-1.084-.797c.312-.426 31.158-42.369 44.637-56.109l-.266-.264C303.072-30.683 262.994-1.122 260.453.749c-.26.555-1.24 3.443 3.764 7.75l-.877 1.021c-.428-.37-.822-.735-1.176-1.089z"/><path d="M141.404 132.799l-1.414-1.41.477-.479c6.27-6.273 9.889-14.623 13.08-21.988 2.227-5.135 4.15-9.574 6.568-12.262 6.018-6.686 9.576-4.648 9.725-4.557l-.697 1.152c-.016-.008-2.842-1.455-8.025 4.303-2.271 2.527-4.154 6.869-6.334 11.902-2.621 6.041-5.523 12.74-9.951 18.494 5.754-4.426 12.451-7.33 18.494-9.949 5.033-2.182 9.377-4.062 11.902-6.336 5.771-5.191 4.322-7.994 4.303-8.027l1.152-.693c.092.148 2.131 3.709-4.557 9.721-2.688 2.422-7.125 4.344-12.264 6.572-7.363 3.189-15.713 6.811-21.982 13.084l-.477.473z"/><path d="M160.15 110.449c2.1-7.914 4.51-12.5 7.158-13.629 1.191-.506 1.992-.104 2.078-.051l-.652 1.176.326-.586-.303.598c-.014-.008-.379-.164-1.012.143-1.252.596-3.732 3.043-6.295 12.697l-1.3-.348zM316.4-43.612a3.674 3.674 0 0 1 0-5.193 3.675 3.675 0 0 1 5.191.002 3.674 3.674 0 0 1 0 5.189 3.673 3.673 0 0 1-5.191.002zm4.239-4.24a2.327 2.327 0 0 0-3.287-.002 2.328 2.328 0 0 0 0 3.289 2.33 2.33 0 0 0 3.289 0 2.331 2.331 0 0 0-.002-3.287zm-114.61 87.791c-7.811-13.445-5.486-22.889-5.385-23.287l1.305.338c-.025.092-2.264 9.344 5.248 22.27l-1.168.679zm26.821 26.815l.676-1.164c12.93 7.514 22.178 5.271 22.271 5.252l.338 1.301c-.395.103-9.842 2.427-23.285-5.389zm-23.815-1.731c-5.105-5.104-5.107-13.41-.002-18.514l.953.953c-4.58 4.579-4.578 12.032 0 16.608l-.951.953zm-4.242 5.069a1.487 1.487 0 0 1-2.102.004 1.487 1.487 0 0 1 2.102-2.102c.58.578.58 1.52 0 2.098z"/><circle cx="230.298" cy="42.489" r="1.485"/><circle cx="203.742" cy="42.489" r="1.485"/><path d="M229.248 70.092a1.48 1.48 0 0 1 .002-2.098 1.476 1.476 0 0 1 2.096 0 1.482 1.482 0 1 1-2.098 2.098zm-31.006-12.84a1.485 1.485 0 1 1 1.486-1.482 1.485 1.485 0 0 1-1.486 1.482zm37.555 0a1.485 1.485 0 1 1-.002-2.97 1.485 1.485 0 0 1 .002 2.97zm-20.264-20.26a1.49 1.49 0 0 1 1.488-1.486 1.484 1.484 0 0 1 1.486 1.486c0 .816-.666 1.482-1.488 1.486a1.49 1.49 0 0 1-1.486-1.486zm.004 37.555a1.485 1.485 0 1 1 2.97-.006 1.485 1.485 0 0 1-2.97.006z"/></g><text transform="translate(90.121 286.215)" fill="#686868" font-family="'Roboto-Light'" font-size="33.261">Ready, Start...</text><g fill="#686868"><path d="M-23.93 310.217l.013-.697c.166-8.889 3.873-27.885 10.631-46.984 5.833-16.491 15.875-38.499 30.573-49.7 13.938-10.619 27.183-12.15 35.84-11.561 9.396.635 15.407 3.75 15.661 3.885l-.629 1.189c-.057-.031-6.059-3.129-15.188-3.736-8.412-.559-21.288.947-34.869 11.293-26.74 20.377-39.991 78.606-40.651 94.933 16.325-.662 74.555-13.914 94.928-40.654 10.365-13.604 11.861-26.505 11.291-34.931-.619-9.117-3.703-15.066-3.732-15.125l1.189-.629c.133.252 3.248 6.264 3.885 15.662.588 8.654-.941 21.9-11.562 35.841-11.198 14.697-33.209 24.738-49.697 30.572-19.103 6.76-38.095 10.463-46.983 10.631l-.7.011z"/><path d="M10.582 275.705c-6.039-6.037-6.039-15.859 0-21.901 6.037-6.037 15.86-6.037 21.899.004 6.037 6.038 6.037 15.86 0 21.897-6.039 6.037-15.862 6.037-21.899 0zm20.946-20.948c-5.513-5.51-14.482-5.51-19.993 0-5.513 5.517-5.513 14.483-.002 19.999 5.511 5.512 14.482 5.512 19.995-.004 5.511-5.512 5.511-14.482 0-19.995zm-82.446 60.034l-.252-1.352c-.225-1.197-5.322-29.361 6.509-42.467 3.051-3.387 6.662-5.133 10.724-5.193 9.275-.143 17.616 8.455 17.968 8.812l-.973.93c-.075-.088-8.294-8.529-16.976-8.398-3.676.061-6.956 1.656-9.744 4.75-9.954 11.029-7.275 34.121-6.404 39.955 4.077-4.371 19.985-20.412 28.638-14.439l-.765 1.109c-8.794-6.074-27.625 15.049-27.814 15.26l-.911 1.033zm22.414 22.414l1.034-.91c.214-.191 21.331-19.023 15.262-27.812l1.106-.766c5.972 8.648-10.065 24.559-14.439 28.639 5.835.869 28.934 3.545 39.955-6.404 3.094-2.791 4.691-6.072 4.747-9.75.131-8.688-8.308-16.887-8.398-16.971l.931-.973c.365.352 8.954 8.693 8.812 17.967-.058 4.064-1.804 7.674-5.188 10.727-13.111 11.828-41.275 6.732-42.469 6.508l-1.353-.255zm95.179-119.784c-4.936-4.936-2.899-8.342-2.804-8.492l.069-.107.104-.076c.432-.318 43.291-31.84 56.432-44.98l.477-.477 2.164 2.164-.477.477c-13.139 13.141-44.66 56.002-44.979 56.432l-1.084-.797c.312-.426 31.158-42.369 44.637-56.109l-.266-.264c-13.365 13.115-53.443 42.676-55.984 44.547-.26.555-1.24 3.443 3.764 7.75l-.877 1.021c-.428-.37-.823-.736-1.176-1.089z"/><path d="M-54.086 341.789l-1.414-1.41.477-.479c6.27-6.273 9.889-14.623 13.081-21.988 2.226-5.135 4.15-9.574 6.568-12.262 6.016-6.686 9.576-4.648 9.725-4.557l-.699 1.152c-.014-.008-2.84-1.455-8.025 4.303-2.271 2.527-4.153 6.869-6.334 11.902-2.621 6.041-5.523 12.74-9.951 18.494 5.754-4.426 12.452-7.33 18.495-9.949 5.032-2.182 9.376-4.062 11.901-6.336 5.771-5.191 4.322-7.994 4.303-8.027l1.153-.693c.092.148 2.129 3.709-4.558 9.721-2.687 2.422-7.125 4.344-12.263 6.572-7.365 3.189-15.714 6.811-21.984 13.084l-.475.473z"/><path d="M-35.34 319.439c2.101-7.914 4.51-12.5 7.16-13.629 1.19-.506 1.991-.104 2.078-.051l-.652 1.176.326-.586-.303.598c-.013-.008-.379-.164-1.011.143-1.253.596-3.733 3.043-6.296 12.697l-1.302-.348zm156.251-154.061a3.674 3.674 0 0 1 0-5.193 3.675 3.675 0 0 1 5.191.002 3.674 3.674 0 0 1 0 5.189 3.673 3.673 0 0 1-5.191.002zm4.238-4.24a2.327 2.327 0 0 0-3.287-.002 2.328 2.328 0 0 0 0 3.289 2.33 2.33 0 0 0 3.289 0 2.33 2.33 0 0 0-.002-3.287zM10.54 248.929c-7.812-13.445-5.487-22.889-5.385-23.287l1.304.338c-.024.092-2.263 9.344 5.248 22.27l-1.167.679zm26.82 26.815l.676-1.164c12.93 7.514 22.178 5.271 22.271 5.252l.338 1.301c-.394.103-9.841 2.428-23.285-5.389zm-28.056 3.338a1.487 1.487 0 0 1-2.102.004 1.487 1.487 0 0 1 2.102-2.102c.58.578.58 1.52 0 2.098z"/><circle cx="34.808" cy="251.479" r="1.485"/><path d="M13.545 274.014c-5.104-5.104-5.106-13.41-.002-18.515l.953.953c-4.58 4.579-4.578 12.032 0 16.608l-.951.954z"/><circle cx="8.253" cy="251.479" r="1.485"/><path d="M33.757 279.082a1.48 1.48 0 0 1 .002-2.098 1.479 1.479 0 0 1 2.098 0c.582.578.582 1.52.004 2.098a1.486 1.486 0 0 1-2.104 0zm-31.005-12.84a1.486 1.486 0 1 1 1.487-1.482 1.485 1.485 0 0 1-1.487 1.482zm37.555 0a1.484 1.484 0 1 1 .002-2.97 1.485 1.485 0 1 1-.002 2.97zm-20.265-20.261a1.49 1.49 0 0 1 1.489-1.486 1.484 1.484 0 0 1 1.485 1.486c0 .816-.666 1.482-1.487 1.486a1.488 1.488 0 0 1-1.487-1.486zm.004 37.556z"/></g><path fill="none" stroke="#686868" stroke-width="4" stroke-miterlimit="10" d="M492.657.774s58 18 68 92-61 189-87 216c-26-27-97-142-87-216s68-92 68-92"/><circle fill="none" stroke="#686868" stroke-width="4" stroke-miterlimit="10" cx="473.657" cy="167.69" r="33"/><path d="M430.038 243.769s-51.381-1.078-49.381 37.922 56 76 56 76-4-64.857 21-69.429m59.619-44.493s51.381-1.078 49.381 37.922-56 76-56 76 4-64.857-21-69.429m4.156-275.572s-18.061-118-18.061-160h-3.82c0 42-18.062 160-18.062 160s2.062 9 19.786 7.666" fill="none" stroke="#686868" stroke-width="4" stroke-miterlimit="10"/><path d="M490.386 300.728s8 1.963 7 20.963-23 51-23 85h-1.456c0-34-22-66-23-85s7-20.963 7-20.963m6.693 8.046s-10.114 2.916 7.886 33.916" fill="none" stroke="#686868" stroke-width="4" stroke-miterlimit="10"/><circle fill="none" stroke="#686868" stroke-width="4" stroke-miterlimit="10" cx="473.658" cy="-153.63" r="6.679"/><path d="M387.527 131.107s10.985 18.69 44.261 27.51m128-27.51s-10.984 18.69-44.261 27.51" fill="none" stroke="#686868" stroke-width="4" stroke-miterlimit="10"/><g fill="#686868"><circle cx="473.658" cy="209.526" r="3.31"/><circle cx="473.658" cy="125.854" r="3.31"/></g><path fill="none" stroke="#686868" stroke-width="4" stroke-miterlimit="10" d="M475.657 193.356c-15.279 0-27.666-12.386-27.666-27.666"/><g fill="#686868"><circle cx="431.821" cy="167.69" r="3.31"/><circle cx="515.493" cy="167.69" r="3.31"/></g><g fill="#686868"><circle cx="444.075" cy="197.273" r="3.309"/><circle cx="503.24" cy="138.108" r="3.31"/></g><g fill="#686868"><circle cx="444.076" cy="138.108" r="3.31"/><circle cx="503.241" cy="197.273" r="3.31"/></g><path fill="none" stroke="#FFF" stroke-width="4" stroke-miterlimit="10" d="M813.727 22.446s58 18 68 92-61 189-87 216c-26-27-97-142-87-216s68-92 68-92"/><circle fill="none" stroke="#FFF" stroke-width="4" stroke-miterlimit="10" cx="794.727" cy="189.362" r="33"/><path d="M751.107 265.44s-51.381-1.078-49.381 37.922 56 76 56 76-4-64.857 21-69.429m59.62-44.493s51.381-1.078 49.381 37.922-56 76-56 76 4-64.857-21-69.429m4.156-275.571s-18.061-118-18.061-160h-3.82c0 42-18.062 160-18.062 160s2.062 9 19.786 7.666" fill="none" stroke="#FFF" stroke-width="4" stroke-miterlimit="10"/><path d="M811.455 322.399s8 1.963 7 20.963-23 51-23 85h-1.456c0-34-22-66-23-85s7-20.963 7-20.963m6.693 8.047s-10.114 2.916 7.886 33.916" fill="none" stroke="#FFF" stroke-width="4" stroke-miterlimit="10"/><circle fill="none" stroke="#FFF" stroke-width="4" stroke-miterlimit="10" cx="794.727" cy="-131.958" r="6.679"/><path d="M708.597 152.779s10.985 18.69 44.261 27.51m127.999-27.51s-10.984 18.69-44.261 27.51m-39.869 34.739c-15.279 0-27.666-12.386-27.666-27.666" fill="none" stroke="#FFF" stroke-width="4" stroke-miterlimit="10"/><g fill="#FFF"><circle cx="794.728" cy="231.198" r="3.31"/><circle cx="794.728" cy="147.526" r="3.31"/><circle cx="752.891" cy="189.362" r="3.31"/><circle cx="836.562" cy="189.362" r="3.31"/><circle cx="765.145" cy="218.945" r="3.309"/><circle cx="824.31" cy="159.78" r="3.31"/><circle cx="765.145" cy="159.78" r="3.31"/><circle cx="824.31" cy="218.945" r="3.31"/></g><path fill="none" stroke="#FFF" stroke-width="4" stroke-miterlimit="10" d="M79.641 414.228s12.605 23.951-7.564 50.424c-20.17 26.472-78.787 40.338-95.49 40.654.315-16.703 14.181-75.32 40.654-95.489 26.473-20.17 50.424-7.564 50.424-7.564"/><circle fill="none" stroke="#FFF" stroke-width="4" stroke-miterlimit="10" cx="21.049" cy="460.843" r="14.708"/><path d="M-16.673 471.072s-15.853-16.531-27.513-3.61c-11.661 12.921-6.303 41.599-6.303 41.599s19.179-21.7 28.498-15.262m32.811 4.766s16.532 15.853 3.611 27.513c-12.921 11.661-41.599 6.304-41.599 6.304s21.7-19.179 15.262-28.498m88.155-85.536s31.496-42.879 44.731-56.115l-1.204-1.204c-13.235 13.237-56.115 44.732-56.115 44.732s-2.186 3.485 3.82 8.65" fill="none" stroke="#FFF" stroke-width="4" stroke-miterlimit="10"/><path d="M-15.605 508.041s1.902 3.141-4.4 8.813c-6.303 5.672-23.321 8.823-34.036 19.538l-.459-.459c10.715-10.714 13.867-27.732 19.539-34.035s8.812-4.4 8.812-4.4m-.426 4.646s-4.106-2.269-8.203 13.173" fill="none" stroke="#FFF" stroke-width="4" stroke-miterlimit="10"/><circle fill="none" stroke="#FFF" stroke-width="4" stroke-miterlimit="10" cx="122.312" cy="359.581" r="2.977"/><path d="M5.435 422.171s-2.428 9.353 5.279 22.618m49.009 31.669s-9.353 2.429-22.618-5.278m-23.514-1.618c-4.815-4.815-4.816-12.622 0-17.438" fill="none" stroke="#FFF" stroke-width="4" stroke-miterlimit="10"/><g fill="#FFF"><circle cx="7.865" cy="474.028" r="1.475"/><circle cx="34.234" cy="447.659" r="1.475"/><circle cx="7.865" cy="447.659" r="1.475"/><circle cx="34.234" cy="474.028" r="1.474"/><circle cx="2.404" cy="460.844" r="1.475"/><circle cx="39.695" cy="460.843" r="1.475"/><circle cx="21.05" cy="442.198" r="1.475"/><circle cx="21.05" cy="479.489" r="1.475"/></g><g fill="#686868"><path d="M-22.274 101.209l.016-.93c.169-8.889 3.87-27.869 10.622-46.95 5.831-16.483 15.87-38.484 30.581-49.693C32.907-7.001 46.179-8.534 54.855-7.945c9.421.639 15.462 3.769 15.714 3.901l-.833 1.584c-.06-.03-6.021-3.105-15.088-3.704-8.349-.55-21.133.949-34.618 11.225-26.496 20.187-39.687 77.721-40.464 94.308 16.586-.778 74.121-13.971 94.308-40.465 10.273-13.485 11.774-26.27 11.224-34.619-.598-9.067-3.674-15.027-3.706-15.087l1.586-.833c.134.252 3.263 6.292 3.903 15.715.586 8.675-.945 21.948-11.583 35.91-11.209 14.711-33.21 24.75-49.693 30.581-19.081 6.75-38.062 10.452-46.951 10.62l-.928.018z"/><path d="M12.232 66.703c-6.112-6.11-6.112-16.055 0-22.165 6.11-6.112 16.055-6.112 22.165 0 6.112 6.11 6.112 16.055 0 22.165-6.11 6.112-16.055 6.112-22.165 0zM33.13 45.804c-5.413-5.413-14.22-5.413-19.633 0-5.413 5.414-5.413 14.221 0 19.634 5.414 5.413 14.221 5.413 19.633 0 5.413-5.414 5.413-14.22 0-19.634zm-82.241 60.233l-.337-1.803c-.224-1.195-5.327-29.403 6.548-42.565 3.09-3.423 6.747-5.19 10.867-5.253 9.348-.14 17.733 8.499 18.091 8.864l-1.293 1.239c-.079-.09-8.213-8.445-16.776-8.311-3.601.055-6.817 1.625-9.557 4.661-9.62 10.66-7.321 32.768-6.402 39.228 4.546-4.816 19.985-20.017 28.547-14.101l-1.019 1.473c-7.145-4.936-22.241 9.294-27.454 15.193l-1.215 1.375zm22.008 22.008l1.374-1.214c5.9-5.215 20.126-20.314 15.192-27.456l1.475-1.017c5.916 8.562-9.285 24.001-14.102 28.547 6.459.919 28.568 3.218 39.227-6.401 3.038-2.74 4.606-5.958 4.663-9.558.134-8.563-8.225-16.697-8.312-16.776l1.24-1.292c.369.354 9.004 8.741 8.863 18.089-.063 4.121-1.83 7.777-5.254 10.866-13.161 11.877-41.369 6.772-42.562 6.55l-1.804-.338zM68.204 8.552c-5.055-5.053-2.933-8.597-2.832-8.756l.09-.145.138-.1c.432-.316 43.184-31.758 56.282-44.857l.633-.634 2.477 2.477-.633.633c-13.101 13.1-44.542 55.851-44.857 56.281l-1.444-1.059c.304-.415 29.278-39.81 43.301-54.698C106.971-28.753 69.69-1.236 66.832.869c-.255.598-1.023 3.335 3.72 7.418l-1.168 1.358c-.43-.371-.824-.735-1.18-1.093z"/><path d="M-52.137 132.799l-1.727-1.727.634-.633c6.227-6.229 9.828-14.536 13.006-21.868 2.231-5.146 4.157-9.59 6.594-12.297 6.022-6.693 9.596-4.824 9.984-4.59l-.927 1.532c-.004-.001-2.705-1.323-7.725 4.255-2.242 2.49-4.114 6.811-6.281 11.812-2.437 5.621-5.118 11.808-9.047 17.28 5.473-3.932 11.658-6.61 17.279-9.047 5.002-2.169 9.32-4.041 11.812-6.284 5.578-5.019 4.255-7.719 4.242-7.746l1.544-.904c.234.388 2.103 3.962-4.589 9.983-2.707 2.437-7.151 4.363-12.297 6.593-7.332 3.179-15.64 6.781-21.868 13.008l-.634.633z"/><path d="M-33.648 110.126c2.114-7.968 4.561-12.593 7.272-13.75 1.285-.55 2.173-.096 2.27-.042l-.866 1.568s.014.01.044.022c-.013-.004-.319-.12-.873.157-1.207.609-3.606 3.042-6.116 12.503l-1.731-.458zM122.315-43.379a3.89 3.89 0 0 1 0-5.498 3.888 3.888 0 0 1 5.495 0 3.887 3.887 0 0 1-5.495 5.498zm4.23-4.23a2.099 2.099 0 0 0-2.964 0 2.097 2.097 0 0 0 0 2.963 2.099 2.099 0 0 0 2.964 0 2.097 2.097 0 0 0 0-2.963zM12.154 39.94c-7.839-13.494-5.5-23.005-5.397-23.402l1.734.448c-.023.09-2.229 9.246 5.211 22.053l-1.548.901zm26.841 26.84l.9-1.549c12.807 7.441 21.962 5.235 22.054 5.211l.447 1.735c-.396.103-9.907 2.441-23.401-5.397z"/><circle cx="10.066" cy="68.869" r="1.482"/><circle cx="36.562" cy="42.373" r="1.482"/><path d="M15.186 65.015c-5.179-5.18-5.179-13.608 0-18.788l1.268 1.265c-4.481 4.483-4.481 11.774 0 16.255l-1.268 1.268z"/><circle cx="10.066" cy="42.373" r="1.481"/><circle cx="36.561" cy="68.868" r="1.482"/><circle cx="4.579" cy="55.621" r="1.482"/><circle cx="42.048" cy="55.621" r="1.482"/><circle cx="23.314" cy="36.886" r="1.482"/><circle cx="23.314" cy="74.355" r="1.482"/></g></svg>