<svg xmlns="http://www.w3.org/2000/svg" width="364.577" height="182.676" viewBox="-55.5 -47.877 364.577 182.676"><circle fill="none" stroke="#686868" stroke-width="3" stroke-miterlimit="10" cx="-152.571" cy="-346.503" r="48.89"/><text transform="translate(90.121 79.225)" fill="#686868" font-family="'Roboto-Light'" font-size="33.261">Ready, Start...</text><path fill="none" stroke="#686868" stroke-width="3" stroke-miterlimit="10" d="M-106.132-361.792c25.751-1.968 43.298-.583 44.158 4.334 1.34 7.664-38.319 21.008-88.584 29.802-50.264 8.795-92.098 9.714-93.438 2.05-.893-5.099 16.365-12.712 42.821-19.827m-78.383 305.016s58 18 68 92-61 189-87 216c-26-27-97-142-87-216s68-92 68-92"/><circle fill="none" stroke="#686868" stroke-width="3" stroke-miterlimit="10" cx="-298.558" cy="126.5" r="33"/><path d="M-342.177 202.578s-51.381-1.078-49.381 37.922 56 76 56 76-4-64.857 21-69.429m59.619-44.493s51.381-1.078 49.381 37.922-56 76-56 76 4-64.857-21-69.429m4.156-275.571s-18.061-118-18.061-160h-3.82c0 42-18.061 160-18.061 160s2.062 9 19.787 7.666" fill="none" stroke="#686868" stroke-width="3" stroke-miterlimit="10"/><path d="M-281.83 259.537s8 1.963 7 20.963-23 51-23 85h-1.457c0-34-22-66-23-85s7-20.963 7-20.963m6.694 8.047s-10.114 2.916 7.886 33.916" fill="none" stroke="#686868" stroke-width="3" stroke-miterlimit="10"/><circle fill="none" stroke="#686868" stroke-width="3" stroke-miterlimit="10" cx="-298.558" cy="-194.821" r="6.679"/><path d="M-384.688 89.917s10.985 18.69 44.261 27.51m127.999-27.51s-10.985 18.69-44.261 27.51" fill="none" stroke="#686868" stroke-width="3" stroke-miterlimit="10"/><g fill="#686868"><circle cx="-298.558" cy="168.336" r="3.31"/><circle cx="-298.558" cy="84.664" r="3.31"/></g><path fill="none" stroke="#686868" stroke-width="3" stroke-miterlimit="10" d="M-296.558 152.166c-15.28 0-27.667-12.386-27.667-27.666"/><g fill="#686868"><circle cx="-340.394" cy="126.5" r="3.31"/><circle cx="-256.722" cy="126.5" r="3.31"/></g><g fill="#686868"><circle cx="-328.141" cy="156.083" r="3.31"/><circle cx="-268.976" cy="96.917" r="3.31"/></g><g fill="#686868"><circle cx="-328.14" cy="96.917" r="3.31"/><circle cx="-268.975" cy="156.083" r="3.31"/></g><g fill="#686868"><path d="M-23.93 103.227l.013-.698c.166-8.888 3.873-27.885 10.631-46.984 5.833-16.49 15.875-38.499 30.573-49.7C31.225-4.773 44.47-6.305 53.127-5.715c9.396.635 15.407 3.75 15.661 3.884l-.629 1.19c-.057-.031-6.059-3.13-15.188-3.737-8.411-.559-21.287.948-34.868 11.294-26.74 20.376-39.991 78.605-40.651 94.931 16.325-.662 74.555-13.913 94.928-40.653 10.365-13.604 11.861-26.505 11.291-34.93-.619-9.118-3.703-15.067-3.732-15.126l1.189-.629c.133.253 3.248 6.264 3.885 15.663.588 8.654-.941 21.899-11.562 35.84-11.199 14.697-33.21 24.738-49.698 30.571-19.103 6.76-38.095 10.464-46.983 10.631l-.7.013z"/><path d="M10.582 68.714c-6.039-6.037-6.039-15.858 0-21.899 6.037-6.037 15.86-6.037 21.899.004 6.037 6.037 6.037 15.858 0 21.896-6.039 6.036-15.862 6.036-21.899-.001zm20.946-20.946c-5.513-5.511-14.482-5.511-19.993 0-5.513 5.515-5.513 14.482-.002 19.998 5.511 5.511 14.482 5.511 19.995-.004 5.511-5.512 5.511-14.484 0-19.994zM-50.918 107.8l-.252-1.352c-.225-1.196-5.322-29.36 6.509-42.467 3.051-3.386 6.662-5.132 10.724-5.192 9.275-.144 17.616 8.454 17.968 8.812l-.973.93c-.075-.088-8.294-8.529-16.976-8.398-3.676.061-6.956 1.655-9.744 4.749-9.954 11.03-7.275 34.121-6.404 39.955 4.077-4.37 19.985-20.412 28.638-14.438l-.765 1.108c-8.794-6.073-27.625 15.049-27.814 15.26l-.911 1.033zm22.414 22.414l1.034-.909c.214-.191 21.331-19.024 15.262-27.813l1.106-.766c5.972 8.649-10.065 24.56-14.439 28.639 5.835.869 28.934 3.545 39.955-6.404 3.094-2.791 4.691-6.072 4.747-9.749.131-8.688-8.308-16.887-8.398-16.971l.931-.974c.365.352 8.954 8.693 8.812 17.968-.058 4.063-1.804 7.673-5.188 10.727-13.111 11.827-41.275 6.731-42.469 6.508l-1.353-.256zM66.675 10.431c-4.936-4.935-2.899-8.341-2.804-8.492l.069-.107.104-.076c.432-.318 43.291-31.839 56.432-44.979l.477-.477 2.164 2.164-.477.477c-13.139 13.14-44.66 56-44.979 56.431l-1.084-.798c.312-.426 31.158-42.369 44.637-56.108l-.266-.265C107.583-28.684 67.505.877 64.964 2.748c-.26.555-1.24 3.442 3.764 7.75l-.877 1.021c-.428-.37-.823-.734-1.176-1.088z"/><path d="M-54.086 134.799l-1.414-1.411.477-.479c6.27-6.272 9.889-14.622 13.081-21.987 2.226-5.136 4.15-9.574 6.568-12.262 6.016-6.687 9.576-4.649 9.725-4.558l-.699 1.152c-.014-.008-2.84-1.455-8.025 4.303-2.271 2.528-4.153 6.87-6.334 11.902-2.621 6.041-5.523 12.74-9.951 18.494 5.754-4.426 12.452-7.329 18.495-9.948 5.032-2.182 9.376-4.063 11.901-6.336 5.771-5.192 4.322-7.995 4.303-8.027l1.153-.693c.092.147 2.129 3.708-4.558 9.721-2.687 2.421-7.125 4.343-12.263 6.572-7.365 3.189-15.714 6.811-21.984 13.083l-.475.474z"/><path d="M-35.34 112.449c2.101-7.915 4.51-12.501 7.16-13.629 1.19-.507 1.991-.104 2.078-.052l-.652 1.176.326-.586-.303.598c-.013-.008-.379-.163-1.011.144-1.253.595-3.733 3.043-6.296 12.696l-1.302-.347zm156.251-154.06a3.674 3.674 0 0 1 0-5.193 3.675 3.675 0 0 1 5.191.001 3.674 3.674 0 0 1 0 5.189 3.675 3.675 0 0 1-5.191.003zm4.238-4.24a2.327 2.327 0 0 0-3.287-.003 2.33 2.33 0 0 0 0 3.29 2.33 2.33 0 0 0 3.289 0 2.33 2.33 0 0 0-.002-3.287zM10.54 41.938C2.729 28.494 5.053 19.05 5.155 18.651l1.304.339c-.024.092-2.263 9.343 5.248 22.27l-1.167.678zm26.82 26.816l.676-1.164c12.93 7.513 22.178 5.271 22.271 5.252l.338 1.3c-.394.103-9.841 2.427-23.285-5.388zM9.304 72.092a1.487 1.487 0 0 1-2.102.004 1.487 1.487 0 0 1 2.102-2.102c.58.578.58 1.52 0 2.098z"/><circle cx="34.808" cy="44.489" r="1.485"/><path d="M13.545 67.023c-5.104-5.104-5.106-13.41-.002-18.514l.953.953c-4.58 4.577-4.578 12.03 0 16.607l-.951.954z"/><circle cx="8.253" cy="44.489" r="1.485"/><path d="M33.757 72.092a1.48 1.48 0 0 1 .002-2.098 1.479 1.479 0 0 1 2.098 0c.582.578.582 1.52.004 2.098a1.486 1.486 0 0 1-2.104 0zM2.752 59.252a1.486 1.486 0 1 1 1.487-1.483 1.485 1.485 0 0 1-1.487 1.483zm37.555 0a1.484 1.484 0 1 1-.002-2.968 1.484 1.484 0 0 1 .002 2.968zM20.042 38.991a1.49 1.49 0 0 1 1.489-1.485 1.484 1.484 0 0 1 1.485 1.485c0 .817-.666 1.483-1.487 1.487a1.49 1.49 0 0 1-1.487-1.487zm.004 37.555a1.485 1.485 0 1 1 2.97-.004 1.485 1.485 0 0 1-2.97.004z"/></g></svg>